M48
; DRILL file {KiCad (7.0.0)} date Sun Feb 26 18:38:51 2023
; FORMAT={-:-/ absolute / metric / decimal}
; #@! TF.CreationDate,2023-02-26T18:38:51-08:00
; #@! TF.GenerationSoftware,Kicad,Pcbnew,(7.0.0)
; #@! TF.FileFunction,Plated,1,4,PTH
FMAT,2
METRIC
; #@! TA.AperFunction,Plated,PTH,ViaDrill
T1C0.200
; #@! TA.AperFunction,Plated,PTH,ComponentDrill
T2C0.600
; #@! TA.AperFunction,Plated,PTH,ComponentDrill
T3C0.900
; #@! TA.AperFunction,Plated,PTH,ComponentDrill
T4C1.000
%
G90
G05
T1
X41.1Y-121.5
X42.3Y-121.5
X42.3Y-122.3
X44.0Y-97.0
X44.0Y-98.0
X44.0Y-99.0
X44.0Y-100.0
X44.0Y-101.0
X44.0Y-102.0
X45.0Y-97.0
X45.0Y-98.0
X45.0Y-99.0
X45.0Y-100.0
X45.0Y-101.0
X45.0Y-102.0
X46.0Y-97.0
X46.0Y-98.0
X46.0Y-99.0
X46.0Y-100.0
X46.0Y-101.0
X46.0Y-102.0
X53.5Y-120.0
X54.5Y-118.5
X55.5Y-120.0
X58.0Y-126.9
X64.3Y-126.9
X66.0Y-117.4
X66.0Y-118.75
X66.0Y-119.75
X66.0Y-120.75
X66.03Y-122.7
X66.03Y-124.81
X66.04Y-123.84
X67.5Y-126.0
X67.5Y-127.0
X67.5Y-128.5
X67.5Y-129.5
X69.7Y-130.04
X70.08Y-126.29
X70.2Y-118.3
X70.2Y-118.8
X70.25Y-119.5
X70.25Y-120.0
X70.25Y-120.5
X70.6Y-118.0
X71.25Y-118.0
X71.69Y-129.24
X71.7Y-130.04
X72.0Y-118.0
X72.01Y-126.27
X72.22Y-125.12
X72.23Y-123.15
X72.24Y-121.18
X72.41Y-119.36
X72.75Y-118.0
X73.5Y-118.0
X73.68Y-129.24
X73.7Y-130.04
X74.2Y-121.17
X74.21Y-119.16
X74.21Y-123.15
X74.21Y-125.13
X74.25Y-118.0
X75.0Y-118.0
X75.68Y-129.24
X75.7Y-130.04
X75.75Y-118.0
X76.18Y-121.17
X76.19Y-119.18
X76.19Y-123.15
X76.19Y-125.13
X76.5Y-118.0
X77.25Y-118.0
X77.68Y-129.24
X77.7Y-130.04
X78.0Y-118.0
X78.17Y-125.12
X78.18Y-123.14
X78.19Y-121.16
X78.21Y-119.25
X78.75Y-118.0
X79.5Y-118.0
X79.68Y-129.24
X79.69Y-130.04
X80.25Y-118.0
X80.31Y-126.29
X81.71Y-130.04
X82.5Y-125.8
X90.42Y-122.26
X90.43Y-123.11
X91.3Y-128.6
X91.3Y-129.2
X91.9Y-128.6
X91.9Y-129.2
X92.5Y-128.6
X92.5Y-129.2
X93.1Y-128.6
X93.1Y-129.2
X93.43Y-122.56
X94.23Y-122.81
X94.47Y-120.17
X94.77Y-122.8
X94.95Y-119.69
X94.95Y-120.17
X95.43Y-120.17
X98.84Y-120.12
X98.84Y-120.61
X98.84Y-121.66
X98.85Y-121.12
X99.35Y-124.7
X99.35Y-127.55
X99.35Y-128.183
X99.35Y-128.817
X99.35Y-129.45
X100.1Y-121.4
X100.367Y-118.0
X101.0Y-118.0
X101.633Y-118.0
X102.267Y-118.0
X103.2Y-127.55
X103.2Y-128.183
X103.2Y-128.817
X103.2Y-129.45
X103.21Y-123.327
X103.21Y-123.96
X103.71Y-125.52
X104.31Y-124.934
X104.48Y-126.06
X104.72Y-122.68
X104.72Y-123.29
X105.12Y-127.64
X105.12Y-128.56
X105.32Y-126.186
X105.36Y-122.68
X105.56Y-128.1
X105.61Y-129.93
X105.97Y-122.68
X106.03Y-127.62
X106.03Y-128.55
X106.337Y-117.67
X106.36Y-125.99
X106.55Y-122.68
X106.97Y-117.67
X107.02Y-126.87
X107.15Y-122.68
X107.2Y-125.9
X107.603Y-117.67
X107.89Y-129.5
X107.9Y-125.7
X107.9Y-126.2
X107.9Y-126.7
X108.2Y-125.3
X108.237Y-117.67
X108.3Y-127.0
X108.7Y-124.9
X108.7Y-125.4
X109.19Y-129.67
X109.25Y-115.77
X109.25Y-116.403
X109.25Y-117.037
X109.25Y-117.67
X109.56Y-122.64
X109.6Y-128.8
X110.27Y-122.72
X110.53Y-122.31
X110.92Y-122.57
X110.95Y-122.11
X110.97Y-123.03
X111.5Y-115.77
X111.5Y-116.403
X111.5Y-117.037
X111.5Y-117.67
X111.53Y-119.18
X112.0Y-110.5
X112.0Y-111.0
X112.12Y-123.92
X112.13Y-119.19
X112.5Y-110.5
X112.5Y-111.0
X112.94Y-121.37
X112.96Y-124.9
X113.0Y-110.5
X113.0Y-111.0
X113.28Y-120.74
X113.5Y-110.5
X113.5Y-111.0
X113.53Y-118.87
X113.54Y-121.81
X113.71Y-122.5
X113.73Y-123.49
X114.0Y-110.5
X114.0Y-111.0
X114.5Y-110.5
X114.5Y-111.0
X114.82Y-119.36
X114.84Y-124.88
X115.21Y-118.03
X115.6Y-127.8
X115.78Y-120.92
X115.85Y-123.91
X116.6Y-129.9
X117.7Y-128.9
X121.7Y-128.5
T3
X89.78Y-118.17
X98.09Y-112.9
X107.9Y-115.89
X110.9Y-131.21
X112.25Y-113.25
T4
X36.03Y-119.675
X36.03Y-122.215
X36.03Y-124.755
X84.47Y-121.63
X84.47Y-124.17
X101.89Y-112.94
X104.43Y-112.94
X116.25Y-114.5
X118.79Y-114.5
T2
X116.825Y-118.34G85X117.925Y-118.34
G05
X116.825Y-126.98G85X117.925Y-126.98
G05
X121.155Y-118.34G85X121.955Y-118.34
G05
X121.155Y-126.98G85X121.955Y-126.98
G05
T0
M30
