%TF.GenerationSoftware,KiCad,Pcbnew,(7.0.0)*%
%TF.CreationDate,2023-02-26T18:38:48-08:00*%
%TF.ProjectId,esp32-c3-rgb,65737033-322d-4633-932d-7267622e6b69,rev?*%
%TF.SameCoordinates,Original*%
%TF.FileFunction,Soldermask,Top*%
%TF.FilePolarity,Negative*%
%FSLAX46Y46*%
G04 Gerber Fmt 4.6, Leading zero omitted, Abs format (unit mm)*
G04 Created by KiCad (PCBNEW (7.0.0)) date 2023-02-26 18:38:48*
%MOMM*%
%LPD*%
G01*
G04 APERTURE LIST*
G04 Aperture macros list*
%AMRoundRect*
0 Rectangle with rounded corners*
0 $1 Rounding radius*
0 $2 $3 $4 $5 $6 $7 $8 $9 X,Y pos of 4 corners*
0 Add a 4 corners polygon primitive as box body*
4,1,4,$2,$3,$4,$5,$6,$7,$8,$9,$2,$3,0*
0 Add four circle primitives for the rounded corners*
1,1,$1+$1,$2,$3*
1,1,$1+$1,$4,$5*
1,1,$1+$1,$6,$7*
1,1,$1+$1,$8,$9*
0 Add four rect primitives between the rounded corners*
20,1,$1+$1,$2,$3,$4,$5,0*
20,1,$1+$1,$4,$5,$6,$7,0*
20,1,$1+$1,$6,$7,$8,$9,0*
20,1,$1+$1,$8,$9,$2,$3,0*%
%AMFreePoly0*
4,1,19,0.500000,-0.750000,0.000000,-0.750000,0.000000,-0.744911,-0.071157,-0.744911,-0.207708,-0.704816,-0.327430,-0.627875,-0.420627,-0.520320,-0.479746,-0.390866,-0.500000,-0.250000,-0.500000,0.250000,-0.479746,0.390866,-0.420627,0.520320,-0.327430,0.627875,-0.207708,0.704816,-0.071157,0.744911,0.000000,0.744911,0.000000,0.750000,0.500000,0.750000,0.500000,-0.750000,0.500000,-0.750000,
$1*%
%AMFreePoly1*
4,1,19,0.000000,0.744911,0.071157,0.744911,0.207708,0.704816,0.327430,0.627875,0.420627,0.520320,0.479746,0.390866,0.500000,0.250000,0.500000,-0.250000,0.479746,-0.390866,0.420627,-0.520320,0.327430,-0.627875,0.207708,-0.704816,0.071157,-0.744911,0.000000,-0.744911,0.000000,-0.750000,-0.500000,-0.750000,-0.500000,0.750000,0.000000,0.750000,0.000000,0.744911,0.000000,0.744911,
$1*%
%AMFreePoly2*
4,1,6,0.725000,-0.725000,-0.725000,-0.725000,-0.725000,0.125000,-0.125000,0.725000,0.725000,0.725000,0.725000,-0.725000,0.725000,-0.725000,$1*%
%AMFreePoly3*
4,1,19,0.550000,-0.750000,0.000000,-0.750000,0.000000,-0.744911,-0.071157,-0.744911,-0.207708,-0.704816,-0.327430,-0.627875,-0.420627,-0.520320,-0.479746,-0.390866,-0.500000,-0.250000,-0.500000,0.250000,-0.479746,0.390866,-0.420627,0.520320,-0.327430,0.627875,-0.207708,0.704816,-0.071157,0.744911,0.000000,0.744911,0.000000,0.750000,0.550000,0.750000,0.550000,-0.750000,0.550000,-0.750000,
$1*%
%AMFreePoly4*
4,1,19,0.000000,0.744911,0.071157,0.744911,0.207708,0.704816,0.327430,0.627875,0.420627,0.520320,0.479746,0.390866,0.500000,0.250000,0.500000,-0.250000,0.479746,-0.390866,0.420627,-0.520320,0.327430,-0.627875,0.207708,-0.704816,0.071157,-0.744911,0.000000,-0.744911,0.000000,-0.750000,-0.550000,-0.750000,-0.550000,0.750000,0.000000,0.750000,0.000000,0.744911,0.000000,0.744911,
$1*%
%AMFreePoly5*
4,1,7,0.099993,-0.100000,-0.675510,-0.100002,-0.675510,0.099998,-0.100007,0.099998,-0.100007,0.599999,0.099993,0.599999,0.099993,-0.100000,0.099993,-0.100000,$1*%
%AMFreePoly6*
4,1,7,0.099993,-0.599999,-0.100007,-0.599999,-0.100007,-0.099998,-0.675510,-0.099998,-0.675510,0.100000,0.099993,0.100000,0.099993,-0.599999,0.099993,-0.599999,$1*%
%AMFreePoly7*
4,1,7,0.725000,-0.099998,0.100000,-0.099998,0.100000,-0.599999,-0.100000,-0.599999,-0.100000,0.100002,0.725000,0.100002,0.725000,-0.099998,0.725000,-0.099998,$1*%
%AMFreePoly8*
4,1,7,0.100000,0.099998,0.725000,0.099998,0.725000,-0.100002,-0.100000,-0.100000,-0.100000,0.599999,0.100000,0.599999,0.100000,0.099998,0.100000,0.099998,$1*%
G04 Aperture macros list end*
%ADD10C,0.010000*%
%ADD11C,1.000000*%
%ADD12C,1.800000*%
%ADD13FreePoly0,270.000000*%
%ADD14FreePoly1,270.000000*%
%ADD15RoundRect,0.135000X-0.135000X-0.185000X0.135000X-0.185000X0.135000X0.185000X-0.135000X0.185000X0*%
%ADD16RoundRect,0.237500X0.287500X0.237500X-0.287500X0.237500X-0.287500X-0.237500X0.287500X-0.237500X0*%
%ADD17R,1.700000X1.700000*%
%ADD18O,1.700000X1.700000*%
%ADD19RoundRect,0.225000X-0.225000X-0.250000X0.225000X-0.250000X0.225000X0.250000X-0.225000X0.250000X0*%
%ADD20RoundRect,0.250000X0.475000X-0.250000X0.475000X0.250000X-0.475000X0.250000X-0.475000X-0.250000X0*%
%ADD21RoundRect,0.135000X0.185000X-0.135000X0.185000X0.135000X-0.185000X0.135000X-0.185000X-0.135000X0*%
%ADD22RoundRect,0.237500X-0.287500X-0.237500X0.287500X-0.237500X0.287500X0.237500X-0.287500X0.237500X0*%
%ADD23R,1.050000X0.650000*%
%ADD24RoundRect,0.140000X0.140000X0.170000X-0.140000X0.170000X-0.140000X-0.170000X0.140000X-0.170000X0*%
%ADD25RoundRect,0.150000X-0.200000X0.150000X-0.200000X-0.150000X0.200000X-0.150000X0.200000X0.150000X0*%
%ADD26RoundRect,0.250000X-0.475000X0.250000X-0.475000X-0.250000X0.475000X-0.250000X0.475000X0.250000X0*%
%ADD27RoundRect,0.150000X0.150000X-0.512500X0.150000X0.512500X-0.150000X0.512500X-0.150000X-0.512500X0*%
%ADD28RoundRect,0.135000X-0.185000X0.135000X-0.185000X-0.135000X0.185000X-0.135000X0.185000X0.135000X0*%
%ADD29R,0.800000X0.400000*%
%ADD30R,0.400000X0.800000*%
%ADD31R,0.700000X0.700000*%
%ADD32FreePoly2,0.000000*%
%ADD33R,1.450000X1.450000*%
%ADD34R,2.200000X0.900000*%
%ADD35RoundRect,0.135000X0.135000X0.185000X-0.135000X0.185000X-0.135000X-0.185000X0.135000X-0.185000X0*%
%ADD36R,3.600000X1.500000*%
%ADD37FreePoly3,180.000000*%
%ADD38R,1.000000X1.500000*%
%ADD39FreePoly4,180.000000*%
%ADD40RoundRect,0.140000X-0.170000X0.140000X-0.170000X-0.140000X0.170000X-0.140000X0.170000X0.140000X0*%
%ADD41FreePoly5,180.000000*%
%ADD42R,0.624992X0.200000*%
%ADD43FreePoly6,180.000000*%
%ADD44R,0.200000X0.599999*%
%ADD45R,0.200000X0.999998*%
%ADD46FreePoly7,180.000000*%
%ADD47R,0.599999X0.200000*%
%ADD48FreePoly8,180.000000*%
%ADD49R,0.200000X0.618998*%
%ADD50RoundRect,0.140000X0.170000X-0.140000X0.170000X0.140000X-0.170000X0.140000X-0.170000X-0.140000X0*%
%ADD51FreePoly3,90.000000*%
%ADD52R,1.500000X1.000000*%
%ADD53FreePoly4,90.000000*%
%ADD54RoundRect,0.150000X0.512500X0.150000X-0.512500X0.150000X-0.512500X-0.150000X0.512500X-0.150000X0*%
%ADD55R,0.900000X1.500000*%
%ADD56RoundRect,0.150000X0.150000X0.200000X-0.150000X0.200000X-0.150000X-0.200000X0.150000X-0.200000X0*%
%ADD57RoundRect,0.140000X-0.140000X-0.170000X0.140000X-0.170000X0.140000X0.170000X-0.140000X0.170000X0*%
%ADD58RoundRect,0.150000X0.200000X-0.150000X0.200000X0.150000X-0.200000X0.150000X-0.200000X-0.150000X0*%
%ADD59RoundRect,0.225000X0.250000X-0.225000X0.250000X0.225000X-0.250000X0.225000X-0.250000X-0.225000X0*%
%ADD60RoundRect,0.062500X0.275000X0.062500X-0.275000X0.062500X-0.275000X-0.062500X0.275000X-0.062500X0*%
%ADD61RoundRect,0.062500X0.062500X0.275000X-0.062500X0.275000X-0.062500X-0.275000X0.062500X-0.275000X0*%
%ADD62RoundRect,0.225000X0.225000X0.250000X-0.225000X0.250000X-0.225000X-0.250000X0.225000X-0.250000X0*%
%ADD63RoundRect,0.225000X-0.225000X-0.375000X0.225000X-0.375000X0.225000X0.375000X-0.225000X0.375000X0*%
%ADD64C,0.650000*%
%ADD65R,1.150000X0.600000*%
%ADD66R,1.150000X0.300000*%
%ADD67O,2.100000X1.050000*%
%ADD68O,2.000000X1.000000*%
%ADD69C,2.390000*%
%ADD70C,3.450000*%
%ADD71R,7.340000X6.350000*%
G04 APERTURE END LIST*
%TO.C,D1*%
G36*
X67713441Y-117800000D02*
G01*
X67212500Y-117800000D01*
X67212500Y-116999372D01*
X67713441Y-116999372D01*
X67713441Y-117800000D01*
G37*
D10*
X67713441Y-117800000D02*
X67212500Y-117800000D01*
X67212500Y-116999372D01*
X67713441Y-116999372D01*
X67713441Y-117800000D01*
G36*
X67012491Y-117800000D02*
G01*
X66512500Y-117800000D01*
X66512500Y-116999969D01*
X67012491Y-116999969D01*
X67012491Y-117800000D01*
G37*
X67012491Y-117800000D02*
X66512500Y-117800000D01*
X66512500Y-116999969D01*
X67012491Y-116999969D01*
X67012491Y-117800000D01*
%TD*%
D11*
%TO.C,TP6*%
X105730000Y-131620000D03*
%TD*%
D12*
%TO.C,TP5*%
X89780000Y-118170000D03*
%TD*%
D11*
%TO.C,TP12*%
X80699998Y-130040000D03*
%TD*%
D13*
%TO.C,JP4*%
X91880000Y-126220000D03*
D14*
X91880000Y-127520000D03*
%TD*%
D15*
%TO.C,R14*%
X112390000Y-128250000D03*
X113410000Y-128250000D03*
%TD*%
D16*
%TO.C,D2*%
X116575000Y-128900000D03*
X114825000Y-128900000D03*
%TD*%
D17*
%TO.C,J2*%
X36029999Y-119674999D03*
D18*
X36029999Y-122214999D03*
X36029999Y-124754999D03*
%TD*%
D15*
%TO.C,R9*%
X66740000Y-121710000D03*
X67760000Y-121710000D03*
%TD*%
D19*
%TO.C,C6*%
X94240000Y-117310000D03*
X95790000Y-117310000D03*
%TD*%
D20*
%TO.C,C7*%
X94140000Y-123830000D03*
X94140000Y-125730000D03*
%TD*%
D15*
%TO.C,R4*%
X77680000Y-128540000D03*
X78700000Y-128540000D03*
%TD*%
D11*
%TO.C,TP15*%
X56700000Y-121100000D03*
%TD*%
D21*
%TO.C,R12*%
X99490000Y-117870000D03*
X99490000Y-116850000D03*
%TD*%
D22*
%TO.C,D4*%
X97125000Y-115650000D03*
X98875000Y-115650000D03*
%TD*%
D11*
%TO.C,TP11*%
X72706666Y-130040000D03*
%TD*%
D19*
%TO.C,C18*%
X110350000Y-120100000D03*
X111900000Y-120100000D03*
%TD*%
D23*
%TO.C,SW1*%
X59009999Y-124799999D03*
X63159999Y-124799999D03*
X59009999Y-126949999D03*
X63159999Y-126949999D03*
%TD*%
D24*
%TO.C,C11*%
X67730000Y-119750000D03*
X66770000Y-119750000D03*
%TD*%
D16*
%TO.C,D3*%
X97640000Y-128010000D03*
X95890000Y-128010000D03*
%TD*%
D15*
%TO.C,R10*%
X71690000Y-128540000D03*
X72710000Y-128540000D03*
%TD*%
D25*
%TO.C,D8*%
X114825000Y-121500000D03*
X114825000Y-120100000D03*
%TD*%
D15*
%TO.C,R8*%
X66740000Y-123840000D03*
X67760000Y-123840000D03*
%TD*%
D11*
%TO.C,TP17*%
X74704999Y-130040000D03*
%TD*%
D12*
%TO.C,TP18*%
X98090000Y-112900000D03*
%TD*%
D26*
%TO.C,C5*%
X97690000Y-119180000D03*
X97690000Y-121080000D03*
%TD*%
D27*
%TO.C,U5*%
X94000000Y-121255000D03*
X94950000Y-121255000D03*
X95900000Y-121255000D03*
X95900000Y-118980000D03*
X94000000Y-118980000D03*
%TD*%
D24*
%TO.C,C16*%
X104670000Y-130400000D03*
X103710000Y-130400000D03*
%TD*%
D28*
%TO.C,R16*%
X114490000Y-117000000D03*
X114490000Y-118020000D03*
%TD*%
D15*
%TO.C,R5*%
X79680000Y-128540000D03*
X80700000Y-128540000D03*
%TD*%
D11*
%TO.C,TP13*%
X43100000Y-123200000D03*
%TD*%
D15*
%TO.C,R13*%
X93630000Y-128050000D03*
X94650000Y-128050000D03*
%TD*%
D29*
%TO.C,U3*%
X69299999Y-118159999D03*
X69299999Y-118959999D03*
X69299999Y-119759999D03*
X69299999Y-120559999D03*
X69299999Y-121359999D03*
X69299999Y-122159999D03*
X69299999Y-122959999D03*
X69299999Y-123759999D03*
X69299999Y-124559999D03*
X69299999Y-125359999D03*
X69299999Y-126159999D03*
D30*
X70399999Y-127059999D03*
X71199999Y-127059999D03*
X71999999Y-127059999D03*
X72799999Y-127059999D03*
X73599999Y-127059999D03*
X74399999Y-127059999D03*
X75199999Y-127059999D03*
X75999999Y-127059999D03*
X76799999Y-127059999D03*
X77599999Y-127059999D03*
X78399999Y-127059999D03*
X79199999Y-127059999D03*
X79999999Y-127059999D03*
D29*
X81099999Y-126159999D03*
X81099999Y-125359999D03*
X81099999Y-124559999D03*
X81099999Y-123759999D03*
X81099999Y-122959999D03*
X81099999Y-122159999D03*
X81099999Y-121359999D03*
X81099999Y-120559999D03*
X81099999Y-119759999D03*
X81099999Y-118959999D03*
X81099999Y-118159999D03*
D31*
X69249999Y-117209999D03*
X69249999Y-127109999D03*
D30*
X70399999Y-117259999D03*
X71199999Y-117259999D03*
X71999999Y-117259999D03*
X72799999Y-117259999D03*
D32*
X73225000Y-120185000D03*
D33*
X73224999Y-122159999D03*
X73224999Y-124134999D03*
D30*
X73599999Y-117259999D03*
X74399999Y-117259999D03*
X75199999Y-117259999D03*
D33*
X75199999Y-120184999D03*
X75199999Y-122159999D03*
X75199999Y-124134999D03*
D30*
X75999999Y-117259999D03*
X76799999Y-117259999D03*
D33*
X77174999Y-120184999D03*
X77174999Y-122159999D03*
X77174999Y-124134999D03*
D30*
X77599999Y-117259999D03*
X78399999Y-117259999D03*
X79199999Y-117259999D03*
X79999999Y-117259999D03*
D31*
X81149999Y-117209999D03*
X81149999Y-127109999D03*
%TD*%
D34*
%TO.C,L2*%
X106099999Y-123449999D03*
X106099999Y-121549999D03*
%TD*%
D28*
%TO.C,R2*%
X92620000Y-118320000D03*
X92620000Y-117300000D03*
%TD*%
D11*
%TO.C,TP10*%
X68710000Y-130040000D03*
%TD*%
D35*
%TO.C,R19*%
X90120000Y-125700000D03*
X89100000Y-125700000D03*
%TD*%
D11*
%TO.C,TP19*%
X85060000Y-118830000D03*
%TD*%
D36*
%TO.C,L1*%
X97374999Y-123204999D03*
X97374999Y-126254999D03*
%TD*%
D37*
%TO.C,JP3*%
X89880000Y-123910000D03*
D38*
X88579999Y-123909999D03*
D39*
X87280000Y-123910000D03*
%TD*%
D11*
%TO.C,TP8*%
X78701665Y-130040000D03*
%TD*%
D28*
%TO.C,R3*%
X92620000Y-119220000D03*
X92620000Y-120240000D03*
%TD*%
D17*
%TO.C,J4*%
X84469999Y-121629999D03*
D18*
X84469999Y-124169999D03*
%TD*%
D15*
%TO.C,R7*%
X73680000Y-128540000D03*
X74700000Y-128540000D03*
%TD*%
D24*
%TO.C,C2*%
X110400000Y-124900000D03*
X109440000Y-124900000D03*
%TD*%
D18*
%TO.C,TH1*%
X118789999Y-114499999D03*
D17*
X116249999Y-114499999D03*
%TD*%
D40*
%TO.C,C14*%
X82500000Y-126420000D03*
X82500000Y-127380000D03*
%TD*%
D17*
%TO.C,J3*%
X101889999Y-112939999D03*
D18*
X104429999Y-112939999D03*
%TD*%
D41*
%TO.C,U2*%
X111299993Y-123457002D03*
D42*
X111663000Y-122999999D03*
X111663000Y-122600000D03*
X111663000Y-122200001D03*
D43*
X111299993Y-121757000D03*
D44*
X110899999Y-121457000D03*
X110500000Y-121457000D03*
D45*
X110100000Y-121657000D03*
X109700001Y-121657000D03*
D46*
X109300002Y-121757000D03*
D47*
X108875000Y-122200001D03*
X108875000Y-122600000D03*
X108875000Y-122999999D03*
D48*
X109300002Y-123457002D03*
D45*
X109700001Y-123557000D03*
X110100000Y-123557000D03*
X110500000Y-123557000D03*
D49*
X110899999Y-123748000D03*
%TD*%
D12*
%TO.C,TP1*%
X107900000Y-115890000D03*
%TD*%
D50*
%TO.C,C12*%
X113000000Y-123480000D03*
X113000000Y-122520000D03*
%TD*%
D35*
%TO.C,R11*%
X67760000Y-122700000D03*
X66740000Y-122700000D03*
%TD*%
D51*
%TO.C,JP1*%
X103650000Y-120200000D03*
D52*
X103649999Y-118899999D03*
D53*
X103650000Y-117600000D03*
%TD*%
D12*
%TO.C,TP4*%
X112250000Y-113250000D03*
%TD*%
D11*
%TO.C,TP9*%
X70708333Y-130040000D03*
%TD*%
D54*
%TO.C,U1*%
X41100000Y-124200000D03*
X41100000Y-123250000D03*
X41100000Y-122300000D03*
X38825000Y-122300000D03*
X38825000Y-124200000D03*
%TD*%
D55*
%TO.C,D9*%
X51099999Y-124799999D03*
X54399999Y-124799999D03*
X54399999Y-119899999D03*
X51099999Y-119899999D03*
%TD*%
D11*
%TO.C,TP7*%
X107800000Y-131620000D03*
%TD*%
D23*
%TO.C,SW2*%
X83899999Y-127099999D03*
X88049999Y-127099999D03*
X83899999Y-129249999D03*
X88049999Y-129249999D03*
%TD*%
D56*
%TO.C,D7*%
X121000000Y-128500000D03*
X119600000Y-128500000D03*
%TD*%
D24*
%TO.C,C9*%
X67730000Y-118750000D03*
X66770000Y-118750000D03*
%TD*%
D57*
%TO.C,C1*%
X111340000Y-124900000D03*
X112300000Y-124900000D03*
%TD*%
D12*
%TO.C,TP2*%
X110900000Y-131210000D03*
%TD*%
D58*
%TO.C,D5*%
X114825000Y-122775000D03*
X114825000Y-124175000D03*
%TD*%
D11*
%TO.C,TP3*%
X97940000Y-117430000D03*
%TD*%
D24*
%TO.C,C8*%
X67730000Y-120750000D03*
X66770000Y-120750000D03*
%TD*%
D59*
%TO.C,C13*%
X108000000Y-120200000D03*
X108000000Y-118650000D03*
%TD*%
D37*
%TO.C,JP2*%
X89880000Y-121410000D03*
D38*
X88579999Y-121409999D03*
D39*
X87280000Y-121410000D03*
%TD*%
D11*
%TO.C,TP20*%
X83060000Y-118830000D03*
%TD*%
%TO.C,TP14*%
X39100000Y-120400000D03*
%TD*%
%TO.C,TP16*%
X76703332Y-130040000D03*
%TD*%
D60*
%TO.C,U4*%
X106832500Y-128590000D03*
X106832500Y-128090000D03*
X106832500Y-127590000D03*
D61*
X106320000Y-126827500D03*
X105820000Y-126827500D03*
X105320000Y-126827500D03*
X104820000Y-126827500D03*
D60*
X104307500Y-127590000D03*
X104307500Y-128090000D03*
X104307500Y-128590000D03*
D61*
X104820000Y-129352500D03*
X105320000Y-129352500D03*
X105820000Y-129352500D03*
X106320000Y-129352500D03*
D33*
X105569999Y-128089999D03*
%TD*%
D57*
%TO.C,C15*%
X107900000Y-128830000D03*
X108860000Y-128830000D03*
%TD*%
D59*
%TO.C,C17*%
X106500000Y-120200000D03*
X106500000Y-118650000D03*
%TD*%
D24*
%TO.C,C10*%
X67730000Y-124820000D03*
X66770000Y-124820000D03*
%TD*%
D15*
%TO.C,R6*%
X75680000Y-128540000D03*
X76700000Y-128540000D03*
%TD*%
D62*
%TO.C,C3*%
X110300000Y-126200000D03*
X108750000Y-126200000D03*
%TD*%
D28*
%TO.C,R15*%
X113530000Y-116990000D03*
X113530000Y-118010000D03*
%TD*%
D21*
%TO.C,R1*%
X92620000Y-122160000D03*
X92620000Y-121140000D03*
%TD*%
D63*
%TO.C,D6*%
X115150000Y-126600000D03*
X111850000Y-126600000D03*
%TD*%
D64*
%TO.C,J1*%
X117875000Y-125550000D03*
X117875000Y-119770000D03*
D65*
X116799999Y-125859999D03*
X116799999Y-125059999D03*
D66*
X116799999Y-123909999D03*
X116799999Y-122909999D03*
X116799999Y-122409999D03*
X116799999Y-121409999D03*
D65*
X116799999Y-119459999D03*
X116799999Y-120259999D03*
D66*
X116799999Y-120909999D03*
X116799999Y-121909999D03*
X116799999Y-123409999D03*
X116799999Y-124409999D03*
D67*
X117374999Y-126979999D03*
D68*
X121554999Y-126979999D03*
X121554999Y-118339999D03*
D67*
X117374999Y-118339999D03*
%TD*%
D69*
%TO.C,BT1*%
X114350000Y-107250000D03*
D70*
X106020000Y-91250000D03*
X50820000Y-107250000D03*
D71*
X117749999Y-99249999D03*
X39089999Y-99249999D03*
%TD*%
M02*
