%TF.GenerationSoftware,KiCad,Pcbnew,(7.0.0)*%
%TF.CreationDate,2023-02-26T18:38:48-08:00*%
%TF.ProjectId,esp32-c3-rgb,65737033-322d-4633-932d-7267622e6b69,rev?*%
%TF.SameCoordinates,Original*%
%TF.FileFunction,Legend,Bot*%
%TF.FilePolarity,Positive*%
%FSLAX46Y46*%
G04 Gerber Fmt 4.6, Leading zero omitted, Abs format (unit mm)*
G04 Created by KiCad (PCBNEW (7.0.0)) date 2023-02-26 18:38:48*
%MOMM*%
%LPD*%
G01*
G04 APERTURE LIST*
G04 Aperture macros list*
%AMRoundRect*
0 Rectangle with rounded corners*
0 $1 Rounding radius*
0 $2 $3 $4 $5 $6 $7 $8 $9 X,Y pos of 4 corners*
0 Add a 4 corners polygon primitive as box body*
4,1,4,$2,$3,$4,$5,$6,$7,$8,$9,$2,$3,0*
0 Add four circle primitives for the rounded corners*
1,1,$1+$1,$2,$3*
1,1,$1+$1,$4,$5*
1,1,$1+$1,$6,$7*
1,1,$1+$1,$8,$9*
0 Add four rect primitives between the rounded corners*
20,1,$1+$1,$2,$3,$4,$5,0*
20,1,$1+$1,$4,$5,$6,$7,0*
20,1,$1+$1,$6,$7,$8,$9,0*
20,1,$1+$1,$8,$9,$2,$3,0*%
G04 Aperture macros list end*
%ADD10C,0.150000*%
%ADD11C,0.120000*%
%ADD12C,1.800000*%
%ADD13R,1.700000X1.700000*%
%ADD14O,1.700000X1.700000*%
%ADD15C,0.650000*%
%ADD16O,2.100000X1.050000*%
%ADD17O,2.000000X1.000000*%
%ADD18C,2.390000*%
%ADD19C,3.450000*%
%ADD20RoundRect,0.140000X-0.140000X-0.170000X0.140000X-0.170000X0.140000X0.170000X-0.140000X0.170000X0*%
G04 APERTURE END LIST*
D10*
%TO.C,C4*%
X111136666Y-125592142D02*
X111184285Y-125639761D01*
X111184285Y-125639761D02*
X111327142Y-125687380D01*
X111327142Y-125687380D02*
X111422380Y-125687380D01*
X111422380Y-125687380D02*
X111565237Y-125639761D01*
X111565237Y-125639761D02*
X111660475Y-125544523D01*
X111660475Y-125544523D02*
X111708094Y-125449285D01*
X111708094Y-125449285D02*
X111755713Y-125258809D01*
X111755713Y-125258809D02*
X111755713Y-125115952D01*
X111755713Y-125115952D02*
X111708094Y-124925476D01*
X111708094Y-124925476D02*
X111660475Y-124830238D01*
X111660475Y-124830238D02*
X111565237Y-124735000D01*
X111565237Y-124735000D02*
X111422380Y-124687380D01*
X111422380Y-124687380D02*
X111327142Y-124687380D01*
X111327142Y-124687380D02*
X111184285Y-124735000D01*
X111184285Y-124735000D02*
X111136666Y-124782619D01*
X110279523Y-125020714D02*
X110279523Y-125687380D01*
X110517618Y-124639761D02*
X110755713Y-125354047D01*
X110755713Y-125354047D02*
X110136666Y-125354047D01*
D11*
X110862164Y-123800000D02*
X111077836Y-123800000D01*
X110862164Y-124520000D02*
X111077836Y-124520000D01*
%TD*%
%LPC*%
D12*
%TO.C,TP5*%
X89780000Y-118170000D03*
%TD*%
D13*
%TO.C,J2*%
X36029999Y-119674999D03*
D14*
X36029999Y-122214999D03*
X36029999Y-124754999D03*
%TD*%
D12*
%TO.C,TP18*%
X98090000Y-112900000D03*
%TD*%
D13*
%TO.C,J4*%
X84469999Y-121629999D03*
D14*
X84469999Y-124169999D03*
%TD*%
%TO.C,TH1*%
X118789999Y-114499999D03*
D13*
X116249999Y-114499999D03*
%TD*%
%TO.C,J3*%
X101889999Y-112939999D03*
D14*
X104429999Y-112939999D03*
%TD*%
D12*
%TO.C,TP1*%
X107900000Y-115890000D03*
%TD*%
%TO.C,TP4*%
X112250000Y-113250000D03*
%TD*%
%TO.C,TP2*%
X110900000Y-131210000D03*
%TD*%
D15*
%TO.C,J1*%
X117875000Y-125550000D03*
X117875000Y-119770000D03*
D16*
X117374999Y-126979999D03*
D17*
X121554999Y-126979999D03*
X121554999Y-118339999D03*
D16*
X117374999Y-118339999D03*
%TD*%
D18*
%TO.C,BT1*%
X114350000Y-107250000D03*
D19*
X106020000Y-91250000D03*
X50820000Y-107250000D03*
%TD*%
D20*
%TO.C,C4*%
X110490000Y-124160000D03*
X111450000Y-124160000D03*
%TD*%
M02*
