%TF.GenerationSoftware,KiCad,Pcbnew,(7.0.0)*%
%TF.CreationDate,2023-02-26T18:38:48-08:00*%
%TF.ProjectId,esp32-c3-rgb,65737033-322d-4633-932d-7267622e6b69,rev?*%
%TF.SameCoordinates,Original*%
%TF.FileFunction,Copper,L2,Inr*%
%TF.FilePolarity,Positive*%
%FSLAX46Y46*%
G04 Gerber Fmt 4.6, Leading zero omitted, Abs format (unit mm)*
G04 Created by KiCad (PCBNEW (7.0.0)) date 2023-02-26 18:38:48*
%MOMM*%
%LPD*%
G01*
G04 APERTURE LIST*
%TA.AperFunction,ComponentPad*%
%ADD10C,1.800000*%
%TD*%
%TA.AperFunction,ComponentPad*%
%ADD11R,1.700000X1.700000*%
%TD*%
%TA.AperFunction,ComponentPad*%
%ADD12O,1.700000X1.700000*%
%TD*%
%TA.AperFunction,ComponentPad*%
%ADD13O,2.100000X1.050000*%
%TD*%
%TA.AperFunction,ComponentPad*%
%ADD14O,2.000000X1.000000*%
%TD*%
%TA.AperFunction,ViaPad*%
%ADD15C,0.450000*%
%TD*%
G04 APERTURE END LIST*
D10*
%TO.N,+3V3*%
%TO.C,TP5*%
X89780000Y-118170000D03*
%TD*%
D11*
%TO.N,GND*%
%TO.C,J2*%
X36029999Y-119674999D03*
D12*
%TO.N,/LED_DATA_5V*%
X36029999Y-122214999D03*
%TO.N,VSYS*%
X36029999Y-124754999D03*
%TD*%
D10*
%TO.N,GND*%
%TO.C,TP18*%
X98090000Y-112900000D03*
%TD*%
D11*
%TO.N,/AUX_USB_D+*%
%TO.C,J4*%
X84469999Y-121629999D03*
D12*
%TO.N,/AUX_USB_D-*%
X84469999Y-124169999D03*
%TD*%
%TO.N,GND*%
%TO.C,TH1*%
X118789999Y-114499999D03*
D11*
%TO.N,/TS*%
X116249999Y-114499999D03*
%TD*%
%TO.N,GND*%
%TO.C,J3*%
X101889999Y-112939999D03*
D12*
%TO.N,/VAUX*%
X104429999Y-112939999D03*
%TD*%
D10*
%TO.N,/VSYS_CHG*%
%TO.C,TP1*%
X107900000Y-115890000D03*
%TD*%
%TO.N,VBAT*%
%TO.C,TP4*%
X112250000Y-113250000D03*
%TD*%
%TO.N,VBUS*%
%TO.C,TP2*%
X110900000Y-131210000D03*
%TD*%
D13*
%TO.N,GND*%
%TO.C,J1*%
X117374999Y-126979999D03*
D14*
X121554999Y-126979999D03*
X121554999Y-118339999D03*
D13*
X117374999Y-118339999D03*
%TD*%
D15*
%TO.N,GND*%
X107900000Y-126700000D03*
X107900000Y-126200000D03*
X107900000Y-125700000D03*
X108200000Y-125300000D03*
X108700000Y-125400000D03*
X103200000Y-127550000D03*
X99350000Y-127550000D03*
X64300000Y-126900000D03*
X58000000Y-126900000D03*
X42300000Y-121500000D03*
X42300000Y-122300000D03*
X41100000Y-121500000D03*
X53500000Y-120000000D03*
X55500000Y-120000000D03*
X54500000Y-118500000D03*
X67500000Y-129500000D03*
X67500000Y-128500000D03*
X67500000Y-127000000D03*
X67500000Y-126000000D03*
X106030000Y-127620000D03*
X100366666Y-118000000D03*
X82500000Y-125800000D03*
X112960000Y-124900000D03*
X45000000Y-98000000D03*
X105560000Y-128100000D03*
X77250000Y-118000000D03*
X78210000Y-119250000D03*
X46000000Y-98000000D03*
X115600000Y-127800000D03*
X72750000Y-118000000D03*
X112130000Y-119190000D03*
X80250000Y-118000000D03*
X74250000Y-118000000D03*
X114820000Y-119360000D03*
X44000000Y-101000000D03*
X98840000Y-120120000D03*
X115210000Y-118030000D03*
X72230000Y-123150000D03*
X74210000Y-125130000D03*
X78190000Y-121160000D03*
X113000000Y-111000000D03*
X109250000Y-117036667D03*
X105120000Y-127640000D03*
X44000000Y-97000000D03*
X99350000Y-129450000D03*
X108300000Y-127000000D03*
X71250000Y-118000000D03*
X70200000Y-118800000D03*
X114000000Y-110500000D03*
X44000000Y-98000000D03*
X112500000Y-110500000D03*
X99350000Y-128183333D03*
X101633333Y-118000000D03*
X112500000Y-111000000D03*
X121700000Y-128500000D03*
X66030000Y-124810000D03*
X78750000Y-118000000D03*
X44000000Y-100000000D03*
X72010000Y-126270000D03*
X111500000Y-117036667D03*
X111530000Y-119180000D03*
X73500000Y-118000000D03*
X74210000Y-119160000D03*
X102266666Y-118000000D03*
X112000000Y-110500000D03*
X98850000Y-121120000D03*
X114840000Y-124880000D03*
X103200000Y-128816666D03*
X108236667Y-117670000D03*
X99350000Y-128816666D03*
X95430000Y-120170000D03*
X108700000Y-124900000D03*
X109250000Y-115770000D03*
X75000000Y-118000000D03*
X111500000Y-117670000D03*
X111500000Y-115770000D03*
X45000000Y-99000000D03*
X116600000Y-129900000D03*
X72410000Y-119360000D03*
X45000000Y-100000000D03*
X106336667Y-117670000D03*
X94950000Y-120170000D03*
X109560000Y-122640000D03*
X74200000Y-121170000D03*
X112000000Y-111000000D03*
X76500000Y-118000000D03*
X103200000Y-128183333D03*
X45000000Y-101000000D03*
X111500000Y-116403334D03*
X109600000Y-128800000D03*
X75750000Y-118000000D03*
X94950000Y-119690000D03*
X94470000Y-120170000D03*
X78170000Y-125120000D03*
X46000000Y-100000000D03*
X46000000Y-101000000D03*
X113710000Y-122500000D03*
X44000000Y-102000000D03*
X99350000Y-124700000D03*
X105120000Y-128560000D03*
X46000000Y-102000000D03*
X78000000Y-118000000D03*
X113500000Y-110500000D03*
X66000000Y-119750000D03*
X106970000Y-117670000D03*
X101000000Y-118000000D03*
X117700000Y-128900000D03*
X76190000Y-123150000D03*
X70080000Y-126290000D03*
X46000000Y-99000000D03*
X66000000Y-117400000D03*
X109250000Y-117670000D03*
X66000000Y-120750000D03*
X109250000Y-116403334D03*
X103210000Y-123960000D03*
X113500000Y-111000000D03*
X98840000Y-121660000D03*
X103200000Y-129450000D03*
X106030000Y-128550000D03*
X114000000Y-111000000D03*
X72000000Y-118000000D03*
X66000000Y-118750000D03*
X72220000Y-125120000D03*
X70600000Y-118000000D03*
X45000000Y-97000000D03*
X76190000Y-119180000D03*
X66030000Y-122700000D03*
X76190000Y-125130000D03*
X46000000Y-97000000D03*
X114500000Y-111000000D03*
X79500000Y-118000000D03*
X107603333Y-117670000D03*
X45000000Y-102000000D03*
X98840000Y-120610000D03*
X78180000Y-123140000D03*
X72240000Y-121180000D03*
X70200000Y-118300000D03*
X94230000Y-122810000D03*
X113000000Y-110500000D03*
X80310000Y-126290000D03*
X44000000Y-99000000D03*
X76180000Y-121170000D03*
X103210000Y-123326667D03*
X94770000Y-122800000D03*
X114500000Y-110500000D03*
X74210000Y-123150000D03*
%TO.N,+3V3*%
X107020000Y-126870000D03*
X91300000Y-129200000D03*
X93100000Y-129200000D03*
X92500000Y-128600000D03*
X70250000Y-120500000D03*
X73680000Y-129240000D03*
X77680000Y-129240000D03*
X105609998Y-129930500D03*
X70250000Y-120000000D03*
X91900000Y-128600000D03*
X93100000Y-128600000D03*
X79680000Y-129240000D03*
X92500000Y-129200000D03*
X71690000Y-129240000D03*
X70250000Y-119500000D03*
X91900000Y-129200000D03*
X66040000Y-123840000D03*
X91300000Y-128600000D03*
X75680000Y-129240000D03*
%TO.N,/REGN*%
X113730000Y-123490000D03*
X113530000Y-118870000D03*
%TO.N,/CC2*%
X109190000Y-129670000D03*
X115780000Y-120920000D03*
%TO.N,/CC1*%
X107890000Y-129500000D03*
X115850000Y-123910000D03*
%TO.N,/USB_D-*%
X112940000Y-121370000D03*
X90430000Y-123110000D03*
%TO.N,/USB_D+*%
X90420000Y-122260000D03*
X113280000Y-120740500D03*
%TO.N,/PD_INT_N*%
X106360000Y-125990000D03*
X79690000Y-130040000D03*
%TO.N,/SDA*%
X75700000Y-130040000D03*
X104480000Y-126060000D03*
%TO.N,/SCL*%
X77700000Y-130040000D03*
X105320000Y-126186001D03*
%TO.N,/CHG_INT_N*%
X73700000Y-130040000D03*
X103710000Y-125520000D03*
%TO.N,/CHG_STAT*%
X71700000Y-130040000D03*
X104310000Y-124934050D03*
%TO.N,/CHG_PG_N*%
X113540000Y-121810000D03*
X69700000Y-130040000D03*
%TO.N,/CHG_CE_N*%
X107200000Y-125900000D03*
X81710000Y-130040000D03*
%TO.N,VSYS*%
X93430000Y-122560000D03*
X100100000Y-121400000D03*
%TO.N,/SW*%
X105970000Y-122680000D03*
X104720000Y-122680000D03*
X106550000Y-122680000D03*
X105360000Y-122680000D03*
X107150000Y-122680000D03*
X110970000Y-123030000D03*
X104720000Y-123290000D03*
X110950000Y-122110000D03*
X110530000Y-122310000D03*
X110270000Y-122720000D03*
X110920000Y-122570000D03*
%TO.N,/BTST*%
X112120000Y-123920000D03*
%TD*%
%TA.AperFunction,Conductor*%
%TO.N,GND*%
G36*
X55985648Y-110014352D02*
G01*
X56000000Y-110049000D01*
X56000000Y-116500000D01*
X95990253Y-116500000D01*
X96000000Y-116500000D01*
X96000000Y-115890000D01*
X106867528Y-115890000D01*
X106887367Y-116091425D01*
X106888062Y-116093718D01*
X106888064Y-116093725D01*
X106945419Y-116282800D01*
X106946120Y-116285110D01*
X107041531Y-116463611D01*
X107043054Y-116465467D01*
X107043057Y-116465471D01*
X107168407Y-116618210D01*
X107169932Y-116620068D01*
X107326389Y-116748469D01*
X107504890Y-116843880D01*
X107698575Y-116902633D01*
X107900000Y-116922472D01*
X108101425Y-116902633D01*
X108295110Y-116843880D01*
X108473611Y-116748469D01*
X108630068Y-116620068D01*
X108758469Y-116463611D01*
X108853880Y-116285110D01*
X108912633Y-116091425D01*
X108932472Y-115890000D01*
X108912633Y-115688575D01*
X108853880Y-115494890D01*
X108783147Y-115362558D01*
X115272500Y-115362558D01*
X115272969Y-115364918D01*
X115272970Y-115364923D01*
X115276493Y-115382631D01*
X115279898Y-115399748D01*
X115308078Y-115441922D01*
X115350252Y-115470102D01*
X115387442Y-115477500D01*
X117110148Y-115477500D01*
X117112558Y-115477500D01*
X117149748Y-115470102D01*
X117191922Y-115441922D01*
X117220102Y-115399748D01*
X117227500Y-115362558D01*
X117227500Y-114556827D01*
X117840999Y-114556827D01*
X117853509Y-114683840D01*
X117854442Y-114688533D01*
X117907368Y-114863006D01*
X117909200Y-114867428D01*
X117995148Y-115028224D01*
X117997807Y-115032205D01*
X118113474Y-115173145D01*
X118116854Y-115176525D01*
X118257794Y-115292192D01*
X118261775Y-115294851D01*
X118422571Y-115380799D01*
X118426993Y-115382631D01*
X118601466Y-115435557D01*
X118606159Y-115436490D01*
X118733172Y-115449000D01*
X118738510Y-115448029D01*
X118740000Y-115442812D01*
X118840000Y-115442812D01*
X118841489Y-115448029D01*
X118846827Y-115449000D01*
X118973840Y-115436490D01*
X118978533Y-115435557D01*
X119153006Y-115382631D01*
X119157428Y-115380799D01*
X119318224Y-115294851D01*
X119322205Y-115292192D01*
X119463145Y-115176525D01*
X119466525Y-115173145D01*
X119582192Y-115032205D01*
X119584851Y-115028224D01*
X119670799Y-114867428D01*
X119672631Y-114863006D01*
X119725557Y-114688533D01*
X119726490Y-114683840D01*
X119739000Y-114556827D01*
X119738029Y-114551489D01*
X119732812Y-114550000D01*
X118849747Y-114550000D01*
X118842854Y-114552854D01*
X118840000Y-114559747D01*
X118840000Y-115442812D01*
X118740000Y-115442812D01*
X118740000Y-114559747D01*
X118737145Y-114552854D01*
X118730253Y-114550000D01*
X117847188Y-114550000D01*
X117841970Y-114551489D01*
X117840999Y-114556827D01*
X117227500Y-114556827D01*
X117227500Y-114443172D01*
X117840999Y-114443172D01*
X117841970Y-114448510D01*
X117847188Y-114450000D01*
X118730253Y-114450000D01*
X118737145Y-114447145D01*
X118740000Y-114440253D01*
X118840000Y-114440253D01*
X118842854Y-114447145D01*
X118849747Y-114450000D01*
X119732812Y-114450000D01*
X119738029Y-114448510D01*
X119739000Y-114443172D01*
X119726490Y-114316159D01*
X119725557Y-114311466D01*
X119672631Y-114136993D01*
X119670799Y-114132571D01*
X119584851Y-113971775D01*
X119582192Y-113967794D01*
X119466525Y-113826854D01*
X119463145Y-113823474D01*
X119322205Y-113707807D01*
X119318224Y-113705148D01*
X119157428Y-113619200D01*
X119153006Y-113617368D01*
X118978533Y-113564442D01*
X118973840Y-113563509D01*
X118846827Y-113550999D01*
X118841489Y-113551970D01*
X118840000Y-113557188D01*
X118840000Y-114440253D01*
X118740000Y-114440253D01*
X118740000Y-113557188D01*
X118738510Y-113551970D01*
X118733172Y-113550999D01*
X118606159Y-113563509D01*
X118601466Y-113564442D01*
X118426993Y-113617368D01*
X118422571Y-113619200D01*
X118261775Y-113705148D01*
X118257794Y-113707807D01*
X118116854Y-113823474D01*
X118113474Y-113826854D01*
X117997807Y-113967794D01*
X117995148Y-113971775D01*
X117909200Y-114132571D01*
X117907368Y-114136993D01*
X117854442Y-114311466D01*
X117853509Y-114316159D01*
X117840999Y-114443172D01*
X117227500Y-114443172D01*
X117227500Y-113637442D01*
X117220102Y-113600252D01*
X117191922Y-113558078D01*
X117149748Y-113529898D01*
X117145015Y-113528956D01*
X117145014Y-113528956D01*
X117114923Y-113522970D01*
X117114918Y-113522969D01*
X117112558Y-113522500D01*
X115387442Y-113522500D01*
X115385082Y-113522969D01*
X115385076Y-113522970D01*
X115354985Y-113528956D01*
X115354982Y-113528956D01*
X115350252Y-113529898D01*
X115346242Y-113532576D01*
X115346240Y-113532578D01*
X115312089Y-113555397D01*
X115312086Y-113555399D01*
X115308078Y-113558078D01*
X115305399Y-113562086D01*
X115305397Y-113562089D01*
X115282578Y-113596240D01*
X115282576Y-113596242D01*
X115279898Y-113600252D01*
X115278956Y-113604982D01*
X115278956Y-113604985D01*
X115272970Y-113635076D01*
X115272969Y-113635082D01*
X115272500Y-113637442D01*
X115272500Y-115362558D01*
X108783147Y-115362558D01*
X108758469Y-115316389D01*
X108630068Y-115159932D01*
X108628210Y-115158407D01*
X108475471Y-115033057D01*
X108475467Y-115033054D01*
X108473611Y-115031531D01*
X108295110Y-114936120D01*
X108292802Y-114935420D01*
X108292800Y-114935419D01*
X108103725Y-114878064D01*
X108103718Y-114878062D01*
X108101425Y-114877367D01*
X108099035Y-114877131D01*
X108099032Y-114877131D01*
X107902396Y-114857764D01*
X107900000Y-114857528D01*
X107897604Y-114857764D01*
X107700967Y-114877131D01*
X107700962Y-114877131D01*
X107698575Y-114877367D01*
X107696283Y-114878062D01*
X107696274Y-114878064D01*
X107507199Y-114935419D01*
X107507193Y-114935421D01*
X107504890Y-114936120D01*
X107502764Y-114937256D01*
X107502760Y-114937258D01*
X107332576Y-115028224D01*
X107326389Y-115031531D01*
X107324536Y-115033051D01*
X107324528Y-115033057D01*
X107171789Y-115158407D01*
X107171783Y-115158412D01*
X107169932Y-115159932D01*
X107168412Y-115161783D01*
X107168407Y-115161789D01*
X107043057Y-115314528D01*
X107043051Y-115314536D01*
X107041531Y-115316389D01*
X107040395Y-115318512D01*
X107040395Y-115318514D01*
X106947258Y-115492760D01*
X106947256Y-115492764D01*
X106946120Y-115494890D01*
X106945421Y-115497193D01*
X106945419Y-115497199D01*
X106888064Y-115686274D01*
X106888062Y-115686283D01*
X106887367Y-115688575D01*
X106867528Y-115890000D01*
X96000000Y-115890000D01*
X96000000Y-113642291D01*
X97420524Y-113642291D01*
X97423613Y-113646754D01*
X97529878Y-113733964D01*
X97533865Y-113736628D01*
X97703335Y-113827211D01*
X97707774Y-113829050D01*
X97891665Y-113884833D01*
X97896358Y-113885766D01*
X98087604Y-113904603D01*
X98092396Y-113904603D01*
X98283641Y-113885766D01*
X98288334Y-113884833D01*
X98472225Y-113829050D01*
X98476664Y-113827211D01*
X98532354Y-113797444D01*
X100940001Y-113797444D01*
X100940469Y-113802205D01*
X100944860Y-113824282D01*
X100948484Y-113833032D01*
X100965223Y-113858084D01*
X100971915Y-113864776D01*
X100996969Y-113881516D01*
X101005714Y-113885139D01*
X101027796Y-113889531D01*
X101032554Y-113890000D01*
X101830253Y-113890000D01*
X101837145Y-113887145D01*
X101840000Y-113880253D01*
X101840000Y-113880252D01*
X101940000Y-113880252D01*
X101942854Y-113887144D01*
X101949747Y-113889999D01*
X102747444Y-113889999D01*
X102752205Y-113889530D01*
X102774282Y-113885139D01*
X102783032Y-113881515D01*
X102808084Y-113864776D01*
X102814776Y-113858084D01*
X102831516Y-113833030D01*
X102835139Y-113824285D01*
X102839531Y-113802203D01*
X102840000Y-113797446D01*
X102840000Y-112999747D01*
X102837145Y-112992854D01*
X102830253Y-112990000D01*
X101949747Y-112990000D01*
X101942854Y-112992854D01*
X101940000Y-112999747D01*
X101940000Y-113880252D01*
X101840000Y-113880252D01*
X101840000Y-112999747D01*
X101837145Y-112992854D01*
X101830253Y-112990000D01*
X100949748Y-112990000D01*
X100942855Y-112992854D01*
X100940001Y-112999747D01*
X100940001Y-113797444D01*
X98532354Y-113797444D01*
X98646135Y-113736627D01*
X98650118Y-113733966D01*
X98756388Y-113646751D01*
X98759474Y-113642292D01*
X98756839Y-113637550D01*
X98094560Y-112975271D01*
X98089999Y-112972638D01*
X98085437Y-112975271D01*
X97423159Y-113637550D01*
X97420524Y-113642291D01*
X96000000Y-113642291D01*
X96000000Y-112902396D01*
X97085397Y-112902396D01*
X97104233Y-113093641D01*
X97105166Y-113098334D01*
X97160949Y-113282225D01*
X97162788Y-113286664D01*
X97253371Y-113456134D01*
X97256035Y-113460121D01*
X97343244Y-113566385D01*
X97347707Y-113569474D01*
X97352448Y-113566839D01*
X98014727Y-112904561D01*
X98017360Y-112900000D01*
X98162638Y-112900000D01*
X98165271Y-112904561D01*
X98827550Y-113566839D01*
X98832292Y-113569474D01*
X98836751Y-113566388D01*
X98923966Y-113460118D01*
X98926627Y-113456135D01*
X99017211Y-113286664D01*
X99019050Y-113282225D01*
X99074833Y-113098334D01*
X99075766Y-113093641D01*
X99090899Y-112940000D01*
X103447770Y-112940000D01*
X103448006Y-112942396D01*
X103458463Y-113048575D01*
X103466643Y-113131624D01*
X103467338Y-113133917D01*
X103467340Y-113133924D01*
X103502552Y-113250000D01*
X103522538Y-113315883D01*
X103523676Y-113318012D01*
X103593707Y-113449032D01*
X103613306Y-113485698D01*
X103614833Y-113487559D01*
X103614834Y-113487560D01*
X103704026Y-113596240D01*
X103735459Y-113634541D01*
X103884302Y-113756694D01*
X104054117Y-113847462D01*
X104238376Y-113903357D01*
X104430000Y-113922230D01*
X104621624Y-113903357D01*
X104805883Y-113847462D01*
X104975698Y-113756694D01*
X105124541Y-113634541D01*
X105246694Y-113485698D01*
X105337462Y-113315883D01*
X105357448Y-113250000D01*
X111217528Y-113250000D01*
X111217764Y-113252396D01*
X111223789Y-113313573D01*
X111237367Y-113451425D01*
X111238062Y-113453718D01*
X111238064Y-113453725D01*
X111294525Y-113639852D01*
X111296120Y-113645110D01*
X111391531Y-113823611D01*
X111393054Y-113825467D01*
X111393057Y-113825471D01*
X111509859Y-113967794D01*
X111519932Y-113980068D01*
X111676389Y-114108469D01*
X111854890Y-114203880D01*
X112048575Y-114262633D01*
X112250000Y-114282472D01*
X112451425Y-114262633D01*
X112645110Y-114203880D01*
X112823611Y-114108469D01*
X112980068Y-113980068D01*
X113108469Y-113823611D01*
X113203880Y-113645110D01*
X113262633Y-113451425D01*
X113282472Y-113250000D01*
X113262633Y-113048575D01*
X113203880Y-112854890D01*
X113108469Y-112676389D01*
X112980068Y-112519932D01*
X112978210Y-112518407D01*
X112825471Y-112393057D01*
X112825467Y-112393054D01*
X112823611Y-112391531D01*
X112645110Y-112296120D01*
X112642802Y-112295420D01*
X112642800Y-112295419D01*
X112453725Y-112238064D01*
X112453718Y-112238062D01*
X112451425Y-112237367D01*
X112449035Y-112237131D01*
X112449032Y-112237131D01*
X112252396Y-112217764D01*
X112250000Y-112217528D01*
X112247604Y-112217764D01*
X112050967Y-112237131D01*
X112050962Y-112237131D01*
X112048575Y-112237367D01*
X112046283Y-112238062D01*
X112046274Y-112238064D01*
X111857199Y-112295419D01*
X111857193Y-112295421D01*
X111854890Y-112296120D01*
X111852764Y-112297256D01*
X111852760Y-112297258D01*
X111678514Y-112390395D01*
X111676389Y-112391531D01*
X111674536Y-112393051D01*
X111674528Y-112393057D01*
X111521789Y-112518407D01*
X111521783Y-112518412D01*
X111519932Y-112519932D01*
X111518412Y-112521783D01*
X111518407Y-112521789D01*
X111393057Y-112674528D01*
X111393051Y-112674536D01*
X111391531Y-112676389D01*
X111390395Y-112678512D01*
X111390395Y-112678514D01*
X111297258Y-112852760D01*
X111297256Y-112852764D01*
X111296120Y-112854890D01*
X111295421Y-112857193D01*
X111295419Y-112857199D01*
X111238064Y-113046274D01*
X111238062Y-113046283D01*
X111237367Y-113048575D01*
X111237131Y-113050962D01*
X111237131Y-113050967D01*
X111218241Y-113242760D01*
X111217528Y-113250000D01*
X105357448Y-113250000D01*
X105393357Y-113131624D01*
X105412230Y-112940000D01*
X105393357Y-112748376D01*
X105337462Y-112564117D01*
X105246694Y-112394302D01*
X105124541Y-112245459D01*
X105110107Y-112233613D01*
X104977560Y-112124834D01*
X104977559Y-112124833D01*
X104975698Y-112123306D01*
X104899456Y-112082554D01*
X104808012Y-112033676D01*
X104805883Y-112032538D01*
X104803575Y-112031837D01*
X104803573Y-112031837D01*
X104623924Y-111977340D01*
X104623917Y-111977338D01*
X104621624Y-111976643D01*
X104619234Y-111976407D01*
X104619231Y-111976407D01*
X104432396Y-111958006D01*
X104430000Y-111957770D01*
X104427604Y-111958006D01*
X104240768Y-111976407D01*
X104240763Y-111976407D01*
X104238376Y-111976643D01*
X104236084Y-111977338D01*
X104236075Y-111977340D01*
X104056426Y-112031837D01*
X104056420Y-112031839D01*
X104054117Y-112032538D01*
X104051991Y-112033674D01*
X104051987Y-112033676D01*
X103886426Y-112122170D01*
X103886420Y-112122173D01*
X103884302Y-112123306D01*
X103882445Y-112124829D01*
X103882439Y-112124834D01*
X103737321Y-112243930D01*
X103737316Y-112243934D01*
X103735459Y-112245459D01*
X103733934Y-112247316D01*
X103733930Y-112247321D01*
X103614834Y-112392439D01*
X103614829Y-112392445D01*
X103613306Y-112394302D01*
X103612173Y-112396420D01*
X103612170Y-112396426D01*
X103523676Y-112561987D01*
X103523674Y-112561991D01*
X103522538Y-112564117D01*
X103521839Y-112566420D01*
X103521837Y-112566426D01*
X103467340Y-112746075D01*
X103467338Y-112746084D01*
X103466643Y-112748376D01*
X103466407Y-112750763D01*
X103466407Y-112750768D01*
X103451710Y-112900000D01*
X103447770Y-112940000D01*
X99090899Y-112940000D01*
X99094603Y-112902396D01*
X99094603Y-112897604D01*
X99092894Y-112880253D01*
X100940000Y-112880253D01*
X100942854Y-112887145D01*
X100949747Y-112890000D01*
X101830253Y-112890000D01*
X101837145Y-112887145D01*
X101840000Y-112880253D01*
X101940000Y-112880253D01*
X101942854Y-112887145D01*
X101949747Y-112890000D01*
X102830252Y-112890000D01*
X102837144Y-112887145D01*
X102839999Y-112880253D01*
X102839999Y-112082556D01*
X102839530Y-112077794D01*
X102835139Y-112055717D01*
X102831515Y-112046967D01*
X102814776Y-112021915D01*
X102808084Y-112015223D01*
X102783030Y-111998483D01*
X102774285Y-111994860D01*
X102752203Y-111990468D01*
X102747446Y-111990000D01*
X101949747Y-111990000D01*
X101942854Y-111992854D01*
X101940000Y-111999747D01*
X101940000Y-112880253D01*
X101840000Y-112880253D01*
X101840000Y-111999748D01*
X101837145Y-111992855D01*
X101830253Y-111990001D01*
X101032556Y-111990001D01*
X101027794Y-111990469D01*
X101005717Y-111994860D01*
X100996967Y-111998484D01*
X100971915Y-112015223D01*
X100965223Y-112021915D01*
X100948483Y-112046969D01*
X100944860Y-112055714D01*
X100940468Y-112077796D01*
X100940000Y-112082554D01*
X100940000Y-112880253D01*
X99092894Y-112880253D01*
X99075766Y-112706358D01*
X99074833Y-112701665D01*
X99019050Y-112517774D01*
X99017211Y-112513335D01*
X98926628Y-112343865D01*
X98923964Y-112339878D01*
X98836754Y-112233613D01*
X98832291Y-112230524D01*
X98827550Y-112233159D01*
X98165271Y-112895438D01*
X98162638Y-112900000D01*
X98017360Y-112900000D01*
X98014727Y-112895438D01*
X97352448Y-112233159D01*
X97347707Y-112230524D01*
X97343245Y-112233612D01*
X97256033Y-112339880D01*
X97253371Y-112343865D01*
X97162788Y-112513335D01*
X97160949Y-112517774D01*
X97105166Y-112701665D01*
X97104233Y-112706358D01*
X97085397Y-112897604D01*
X97085397Y-112902396D01*
X96000000Y-112902396D01*
X96000000Y-112157707D01*
X97420524Y-112157707D01*
X97423159Y-112162448D01*
X98085437Y-112824727D01*
X98089999Y-112827360D01*
X98094560Y-112824727D01*
X98756839Y-112162448D01*
X98759474Y-112157707D01*
X98756385Y-112153244D01*
X98650121Y-112066035D01*
X98646134Y-112063371D01*
X98476664Y-111972788D01*
X98472225Y-111970949D01*
X98288334Y-111915166D01*
X98283641Y-111914233D01*
X98092396Y-111895397D01*
X98087604Y-111895397D01*
X97896358Y-111914233D01*
X97891665Y-111915166D01*
X97707774Y-111970949D01*
X97703335Y-111972788D01*
X97533865Y-112063371D01*
X97529880Y-112066033D01*
X97423612Y-112153245D01*
X97420524Y-112157707D01*
X96000000Y-112157707D01*
X96000000Y-110049000D01*
X96014352Y-110014352D01*
X96049000Y-110000000D01*
X124215500Y-110000000D01*
X124250148Y-110014352D01*
X124264500Y-110049000D01*
X124264500Y-132465500D01*
X124250148Y-132500148D01*
X124215500Y-132514500D01*
X99049000Y-132514500D01*
X99014352Y-132500148D01*
X99000000Y-132465500D01*
X99000000Y-131210000D01*
X109867528Y-131210000D01*
X109887367Y-131411425D01*
X109888062Y-131413718D01*
X109888064Y-131413725D01*
X109945419Y-131602800D01*
X109946120Y-131605110D01*
X110041531Y-131783611D01*
X110169932Y-131940068D01*
X110326389Y-132068469D01*
X110504890Y-132163880D01*
X110698575Y-132222633D01*
X110900000Y-132242472D01*
X111101425Y-132222633D01*
X111295110Y-132163880D01*
X111473611Y-132068469D01*
X111630068Y-131940068D01*
X111758469Y-131783611D01*
X111853880Y-131605110D01*
X111912633Y-131411425D01*
X111932472Y-131210000D01*
X111912633Y-131008575D01*
X111853880Y-130814890D01*
X111758469Y-130636389D01*
X111630068Y-130479932D01*
X111528886Y-130396894D01*
X111475471Y-130353057D01*
X111475467Y-130353054D01*
X111473611Y-130351531D01*
X111295110Y-130256120D01*
X111292802Y-130255420D01*
X111292800Y-130255419D01*
X111103725Y-130198064D01*
X111103718Y-130198062D01*
X111101425Y-130197367D01*
X111099035Y-130197131D01*
X111099032Y-130197131D01*
X110902396Y-130177764D01*
X110900000Y-130177528D01*
X110897604Y-130177764D01*
X110700967Y-130197131D01*
X110700962Y-130197131D01*
X110698575Y-130197367D01*
X110696283Y-130198062D01*
X110696274Y-130198064D01*
X110507199Y-130255419D01*
X110507193Y-130255421D01*
X110504890Y-130256120D01*
X110502764Y-130257256D01*
X110502760Y-130257258D01*
X110369041Y-130328733D01*
X110326389Y-130351531D01*
X110324536Y-130353051D01*
X110324528Y-130353057D01*
X110171789Y-130478407D01*
X110171783Y-130478412D01*
X110169932Y-130479932D01*
X110168412Y-130481783D01*
X110168407Y-130481789D01*
X110043057Y-130634528D01*
X110043051Y-130634536D01*
X110041531Y-130636389D01*
X110040395Y-130638512D01*
X110040395Y-130638514D01*
X109947258Y-130812760D01*
X109947256Y-130812764D01*
X109946120Y-130814890D01*
X109945421Y-130817193D01*
X109945419Y-130817199D01*
X109888064Y-131006274D01*
X109888062Y-131006283D01*
X109887367Y-131008575D01*
X109867528Y-131210000D01*
X99000000Y-131210000D01*
X99000000Y-130509747D01*
X99000000Y-130500000D01*
X98990253Y-130500000D01*
X38421822Y-130500000D01*
X38401887Y-130495762D01*
X38385401Y-130483779D01*
X38292026Y-130380029D01*
X37986000Y-130040000D01*
X69343106Y-130040000D01*
X69343709Y-130043807D01*
X69359970Y-130146477D01*
X69359971Y-130146481D01*
X69360574Y-130150286D01*
X69411267Y-130249777D01*
X69490223Y-130328733D01*
X69589714Y-130379426D01*
X69700000Y-130396894D01*
X69810286Y-130379426D01*
X69909777Y-130328733D01*
X69988733Y-130249777D01*
X70039426Y-130150286D01*
X70056894Y-130040000D01*
X71343106Y-130040000D01*
X71343709Y-130043807D01*
X71359970Y-130146477D01*
X71359971Y-130146481D01*
X71360574Y-130150286D01*
X71411267Y-130249777D01*
X71490223Y-130328733D01*
X71589714Y-130379426D01*
X71700000Y-130396894D01*
X71810286Y-130379426D01*
X71909777Y-130328733D01*
X71988733Y-130249777D01*
X72039426Y-130150286D01*
X72056894Y-130040000D01*
X73343106Y-130040000D01*
X73343709Y-130043807D01*
X73359970Y-130146477D01*
X73359971Y-130146481D01*
X73360574Y-130150286D01*
X73411267Y-130249777D01*
X73490223Y-130328733D01*
X73589714Y-130379426D01*
X73700000Y-130396894D01*
X73810286Y-130379426D01*
X73909777Y-130328733D01*
X73988733Y-130249777D01*
X74039426Y-130150286D01*
X74056894Y-130040000D01*
X75343106Y-130040000D01*
X75343709Y-130043807D01*
X75359970Y-130146477D01*
X75359971Y-130146481D01*
X75360574Y-130150286D01*
X75411267Y-130249777D01*
X75490223Y-130328733D01*
X75589714Y-130379426D01*
X75700000Y-130396894D01*
X75810286Y-130379426D01*
X75909777Y-130328733D01*
X75988733Y-130249777D01*
X76039426Y-130150286D01*
X76056894Y-130040000D01*
X77343106Y-130040000D01*
X77343709Y-130043807D01*
X77359970Y-130146477D01*
X77359971Y-130146481D01*
X77360574Y-130150286D01*
X77411267Y-130249777D01*
X77490223Y-130328733D01*
X77589714Y-130379426D01*
X77700000Y-130396894D01*
X77810286Y-130379426D01*
X77909777Y-130328733D01*
X77988733Y-130249777D01*
X78039426Y-130150286D01*
X78056894Y-130040000D01*
X79333106Y-130040000D01*
X79333709Y-130043807D01*
X79349970Y-130146477D01*
X79349971Y-130146481D01*
X79350574Y-130150286D01*
X79401267Y-130249777D01*
X79480223Y-130328733D01*
X79579714Y-130379426D01*
X79690000Y-130396894D01*
X79800286Y-130379426D01*
X79899777Y-130328733D01*
X79978733Y-130249777D01*
X80029426Y-130150286D01*
X80046894Y-130040000D01*
X81353106Y-130040000D01*
X81353709Y-130043807D01*
X81369970Y-130146477D01*
X81369971Y-130146481D01*
X81370574Y-130150286D01*
X81421267Y-130249777D01*
X81500223Y-130328733D01*
X81599714Y-130379426D01*
X81710000Y-130396894D01*
X81820286Y-130379426D01*
X81919777Y-130328733D01*
X81998733Y-130249777D01*
X82049426Y-130150286D01*
X82066894Y-130040000D01*
X82049550Y-129930500D01*
X105253104Y-129930500D01*
X105253707Y-129934307D01*
X105269968Y-130036977D01*
X105269969Y-130036981D01*
X105270572Y-130040786D01*
X105321265Y-130140277D01*
X105400221Y-130219233D01*
X105499712Y-130269926D01*
X105609998Y-130287394D01*
X105720284Y-130269926D01*
X105819775Y-130219233D01*
X105898731Y-130140277D01*
X105949424Y-130040786D01*
X105966892Y-129930500D01*
X105949424Y-129820214D01*
X105898731Y-129720723D01*
X105819775Y-129641767D01*
X105757990Y-129610286D01*
X105723721Y-129592825D01*
X105723719Y-129592824D01*
X105720284Y-129591074D01*
X105716479Y-129590471D01*
X105716475Y-129590470D01*
X105613805Y-129574209D01*
X105609998Y-129573606D01*
X105606191Y-129574209D01*
X105503520Y-129590470D01*
X105503514Y-129590471D01*
X105499712Y-129591074D01*
X105496278Y-129592823D01*
X105496274Y-129592825D01*
X105403659Y-129640015D01*
X105403657Y-129640015D01*
X105400221Y-129641767D01*
X105397496Y-129644491D01*
X105397493Y-129644494D01*
X105323992Y-129717995D01*
X105323989Y-129717998D01*
X105321265Y-129720723D01*
X105319513Y-129724159D01*
X105319513Y-129724161D01*
X105272323Y-129816776D01*
X105272321Y-129816780D01*
X105270572Y-129820214D01*
X105269969Y-129824016D01*
X105269968Y-129824022D01*
X105261138Y-129879777D01*
X105253104Y-129930500D01*
X82049550Y-129930500D01*
X82049426Y-129929714D01*
X81998733Y-129830223D01*
X81919777Y-129751267D01*
X81820286Y-129700574D01*
X81816481Y-129699971D01*
X81816477Y-129699970D01*
X81713807Y-129683709D01*
X81710000Y-129683106D01*
X81706193Y-129683709D01*
X81603522Y-129699970D01*
X81603516Y-129699971D01*
X81599714Y-129700574D01*
X81596280Y-129702323D01*
X81596276Y-129702325D01*
X81503661Y-129749515D01*
X81503659Y-129749515D01*
X81500223Y-129751267D01*
X81497498Y-129753991D01*
X81497495Y-129753994D01*
X81423994Y-129827495D01*
X81423991Y-129827498D01*
X81421267Y-129830223D01*
X81419515Y-129833659D01*
X81419515Y-129833661D01*
X81372325Y-129926276D01*
X81372323Y-129926280D01*
X81370574Y-129929714D01*
X81369971Y-129933516D01*
X81369970Y-129933522D01*
X81357853Y-130010029D01*
X81353106Y-130040000D01*
X80046894Y-130040000D01*
X80029426Y-129929714D01*
X79978733Y-129830223D01*
X79899777Y-129751267D01*
X79800286Y-129700574D01*
X79796481Y-129699971D01*
X79796477Y-129699970D01*
X79718405Y-129687605D01*
X79688810Y-129671031D01*
X79685291Y-129661493D01*
X79681189Y-129672613D01*
X79651595Y-129689188D01*
X79583521Y-129699970D01*
X79583514Y-129699971D01*
X79579714Y-129700574D01*
X79576280Y-129702323D01*
X79576276Y-129702325D01*
X79483661Y-129749515D01*
X79483659Y-129749515D01*
X79480223Y-129751267D01*
X79477498Y-129753991D01*
X79477495Y-129753994D01*
X79403994Y-129827495D01*
X79403991Y-129827498D01*
X79401267Y-129830223D01*
X79399515Y-129833659D01*
X79399515Y-129833661D01*
X79352325Y-129926276D01*
X79352323Y-129926280D01*
X79350574Y-129929714D01*
X79349971Y-129933516D01*
X79349970Y-129933522D01*
X79337853Y-130010029D01*
X79333106Y-130040000D01*
X78056894Y-130040000D01*
X78039426Y-129929714D01*
X77988733Y-129830223D01*
X77909777Y-129751267D01*
X77810286Y-129700574D01*
X77723403Y-129686812D01*
X77693810Y-129670239D01*
X77690583Y-129661493D01*
X77686189Y-129673405D01*
X77656595Y-129689980D01*
X77593521Y-129699970D01*
X77593514Y-129699971D01*
X77589714Y-129700574D01*
X77586280Y-129702323D01*
X77586276Y-129702325D01*
X77493661Y-129749515D01*
X77493659Y-129749515D01*
X77490223Y-129751267D01*
X77487498Y-129753991D01*
X77487495Y-129753994D01*
X77413994Y-129827495D01*
X77413991Y-129827498D01*
X77411267Y-129830223D01*
X77409515Y-129833659D01*
X77409515Y-129833661D01*
X77362325Y-129926276D01*
X77362323Y-129926280D01*
X77360574Y-129929714D01*
X77359971Y-129933516D01*
X77359970Y-129933522D01*
X77347853Y-130010029D01*
X77343106Y-130040000D01*
X76056894Y-130040000D01*
X76039426Y-129929714D01*
X75988733Y-129830223D01*
X75909777Y-129751267D01*
X75810286Y-129700574D01*
X75723403Y-129686812D01*
X75693810Y-129670239D01*
X75690583Y-129661493D01*
X75686189Y-129673405D01*
X75656595Y-129689980D01*
X75593521Y-129699970D01*
X75593514Y-129699971D01*
X75589714Y-129700574D01*
X75586280Y-129702323D01*
X75586276Y-129702325D01*
X75493661Y-129749515D01*
X75493659Y-129749515D01*
X75490223Y-129751267D01*
X75487498Y-129753991D01*
X75487495Y-129753994D01*
X75413994Y-129827495D01*
X75413991Y-129827498D01*
X75411267Y-129830223D01*
X75409515Y-129833659D01*
X75409515Y-129833661D01*
X75362325Y-129926276D01*
X75362323Y-129926280D01*
X75360574Y-129929714D01*
X75359971Y-129933516D01*
X75359970Y-129933522D01*
X75347853Y-130010029D01*
X75343106Y-130040000D01*
X74056894Y-130040000D01*
X74039426Y-129929714D01*
X73988733Y-129830223D01*
X73909777Y-129751267D01*
X73810286Y-129700574D01*
X73723403Y-129686812D01*
X73693810Y-129670239D01*
X73690583Y-129661493D01*
X73686189Y-129673405D01*
X73656595Y-129689980D01*
X73593521Y-129699970D01*
X73593514Y-129699971D01*
X73589714Y-129700574D01*
X73586280Y-129702323D01*
X73586276Y-129702325D01*
X73493661Y-129749515D01*
X73493659Y-129749515D01*
X73490223Y-129751267D01*
X73487498Y-129753991D01*
X73487495Y-129753994D01*
X73413994Y-129827495D01*
X73413991Y-129827498D01*
X73411267Y-129830223D01*
X73409515Y-129833659D01*
X73409515Y-129833661D01*
X73362325Y-129926276D01*
X73362323Y-129926280D01*
X73360574Y-129929714D01*
X73359971Y-129933516D01*
X73359970Y-129933522D01*
X73347853Y-130010029D01*
X73343106Y-130040000D01*
X72056894Y-130040000D01*
X72039426Y-129929714D01*
X71988733Y-129830223D01*
X71909777Y-129751267D01*
X71810286Y-129700574D01*
X71806481Y-129699971D01*
X71806477Y-129699970D01*
X71728405Y-129687605D01*
X71698810Y-129671031D01*
X71695291Y-129661493D01*
X71691189Y-129672613D01*
X71661595Y-129689188D01*
X71593521Y-129699970D01*
X71593514Y-129699971D01*
X71589714Y-129700574D01*
X71586280Y-129702323D01*
X71586276Y-129702325D01*
X71493661Y-129749515D01*
X71493659Y-129749515D01*
X71490223Y-129751267D01*
X71487498Y-129753991D01*
X71487495Y-129753994D01*
X71413994Y-129827495D01*
X71413991Y-129827498D01*
X71411267Y-129830223D01*
X71409515Y-129833659D01*
X71409515Y-129833661D01*
X71362325Y-129926276D01*
X71362323Y-129926280D01*
X71360574Y-129929714D01*
X71359971Y-129933516D01*
X71359970Y-129933522D01*
X71347853Y-130010029D01*
X71343106Y-130040000D01*
X70056894Y-130040000D01*
X70039426Y-129929714D01*
X69988733Y-129830223D01*
X69909777Y-129751267D01*
X69810286Y-129700574D01*
X69806481Y-129699971D01*
X69806477Y-129699970D01*
X69703807Y-129683709D01*
X69700000Y-129683106D01*
X69696193Y-129683709D01*
X69593522Y-129699970D01*
X69593516Y-129699971D01*
X69589714Y-129700574D01*
X69586280Y-129702323D01*
X69586276Y-129702325D01*
X69493661Y-129749515D01*
X69493659Y-129749515D01*
X69490223Y-129751267D01*
X69487498Y-129753991D01*
X69487495Y-129753994D01*
X69413994Y-129827495D01*
X69413991Y-129827498D01*
X69411267Y-129830223D01*
X69409515Y-129833659D01*
X69409515Y-129833661D01*
X69362325Y-129926276D01*
X69362323Y-129926280D01*
X69360574Y-129929714D01*
X69359971Y-129933516D01*
X69359970Y-129933522D01*
X69347853Y-130010029D01*
X69343106Y-130040000D01*
X37986000Y-130040000D01*
X37512578Y-129513976D01*
X37500000Y-129481198D01*
X37500000Y-129240000D01*
X71333106Y-129240000D01*
X71333709Y-129243807D01*
X71349970Y-129346477D01*
X71349971Y-129346481D01*
X71350574Y-129350286D01*
X71352324Y-129353721D01*
X71352325Y-129353723D01*
X71367749Y-129383994D01*
X71401267Y-129449777D01*
X71480223Y-129528733D01*
X71579714Y-129579426D01*
X71661596Y-129592395D01*
X71691189Y-129608968D01*
X71694707Y-129618505D01*
X71698810Y-129607385D01*
X71728404Y-129590811D01*
X71800286Y-129579426D01*
X71899777Y-129528733D01*
X71978733Y-129449777D01*
X72029426Y-129350286D01*
X72046894Y-129240000D01*
X73323106Y-129240000D01*
X73323709Y-129243807D01*
X73339970Y-129346477D01*
X73339971Y-129346481D01*
X73340574Y-129350286D01*
X73342324Y-129353721D01*
X73342325Y-129353723D01*
X73357749Y-129383994D01*
X73391267Y-129449777D01*
X73470223Y-129528733D01*
X73569714Y-129579426D01*
X73656595Y-129593187D01*
X73686189Y-129609760D01*
X73689415Y-129618505D01*
X73693810Y-129606593D01*
X73723404Y-129590019D01*
X73790286Y-129579426D01*
X73889777Y-129528733D01*
X73968733Y-129449777D01*
X74019426Y-129350286D01*
X74036894Y-129240000D01*
X75323106Y-129240000D01*
X75323709Y-129243807D01*
X75339970Y-129346477D01*
X75339971Y-129346481D01*
X75340574Y-129350286D01*
X75342324Y-129353721D01*
X75342325Y-129353723D01*
X75357749Y-129383994D01*
X75391267Y-129449777D01*
X75470223Y-129528733D01*
X75569714Y-129579426D01*
X75656595Y-129593187D01*
X75686189Y-129609760D01*
X75689415Y-129618505D01*
X75693810Y-129606593D01*
X75723404Y-129590019D01*
X75790286Y-129579426D01*
X75889777Y-129528733D01*
X75968733Y-129449777D01*
X76019426Y-129350286D01*
X76036894Y-129240000D01*
X77323106Y-129240000D01*
X77323709Y-129243807D01*
X77339970Y-129346477D01*
X77339971Y-129346481D01*
X77340574Y-129350286D01*
X77342324Y-129353721D01*
X77342325Y-129353723D01*
X77357749Y-129383994D01*
X77391267Y-129449777D01*
X77470223Y-129528733D01*
X77569714Y-129579426D01*
X77656595Y-129593187D01*
X77686189Y-129609760D01*
X77689415Y-129618505D01*
X77693810Y-129606593D01*
X77723404Y-129590019D01*
X77790286Y-129579426D01*
X77889777Y-129528733D01*
X77968733Y-129449777D01*
X78019426Y-129350286D01*
X78036894Y-129240000D01*
X79323106Y-129240000D01*
X79323709Y-129243807D01*
X79339970Y-129346477D01*
X79339971Y-129346481D01*
X79340574Y-129350286D01*
X79342324Y-129353721D01*
X79342325Y-129353723D01*
X79357749Y-129383994D01*
X79391267Y-129449777D01*
X79470223Y-129528733D01*
X79569714Y-129579426D01*
X79651596Y-129592395D01*
X79681189Y-129608968D01*
X79684707Y-129618505D01*
X79688810Y-129607385D01*
X79718404Y-129590811D01*
X79790286Y-129579426D01*
X79889777Y-129528733D01*
X79968733Y-129449777D01*
X80019426Y-129350286D01*
X80036894Y-129240000D01*
X80030558Y-129200000D01*
X90943106Y-129200000D01*
X90943709Y-129203807D01*
X90959970Y-129306477D01*
X90959971Y-129306481D01*
X90960574Y-129310286D01*
X91011267Y-129409777D01*
X91090223Y-129488733D01*
X91189714Y-129539426D01*
X91300000Y-129556894D01*
X91410286Y-129539426D01*
X91509777Y-129488733D01*
X91565351Y-129433158D01*
X91600000Y-129418806D01*
X91634648Y-129433158D01*
X91690223Y-129488733D01*
X91789714Y-129539426D01*
X91900000Y-129556894D01*
X92010286Y-129539426D01*
X92109777Y-129488733D01*
X92165351Y-129433158D01*
X92200000Y-129418806D01*
X92234648Y-129433158D01*
X92290223Y-129488733D01*
X92389714Y-129539426D01*
X92500000Y-129556894D01*
X92610286Y-129539426D01*
X92709777Y-129488733D01*
X92765351Y-129433158D01*
X92800000Y-129418806D01*
X92834648Y-129433158D01*
X92890223Y-129488733D01*
X92989714Y-129539426D01*
X93100000Y-129556894D01*
X93210286Y-129539426D01*
X93287664Y-129500000D01*
X107533106Y-129500000D01*
X107533709Y-129503807D01*
X107549970Y-129606477D01*
X107549971Y-129606481D01*
X107550574Y-129610286D01*
X107601267Y-129709777D01*
X107680223Y-129788733D01*
X107779714Y-129839426D01*
X107890000Y-129856894D01*
X108000286Y-129839426D01*
X108099777Y-129788733D01*
X108178733Y-129709777D01*
X108199000Y-129670000D01*
X108833106Y-129670000D01*
X108833709Y-129673807D01*
X108849970Y-129776477D01*
X108849971Y-129776481D01*
X108850574Y-129780286D01*
X108852324Y-129783721D01*
X108852325Y-129783723D01*
X108874628Y-129827495D01*
X108901267Y-129879777D01*
X108980223Y-129958733D01*
X109079714Y-130009426D01*
X109190000Y-130026894D01*
X109300286Y-130009426D01*
X109399777Y-129958733D01*
X109478733Y-129879777D01*
X109529426Y-129780286D01*
X109546894Y-129670000D01*
X109529426Y-129559714D01*
X109478733Y-129460223D01*
X109399777Y-129381267D01*
X109300286Y-129330574D01*
X109296481Y-129329971D01*
X109296477Y-129329970D01*
X109193807Y-129313709D01*
X109190000Y-129313106D01*
X109186193Y-129313709D01*
X109083522Y-129329970D01*
X109083516Y-129329971D01*
X109079714Y-129330574D01*
X109076280Y-129332323D01*
X109076276Y-129332325D01*
X108983661Y-129379515D01*
X108983659Y-129379515D01*
X108980223Y-129381267D01*
X108977498Y-129383991D01*
X108977495Y-129383994D01*
X108903994Y-129457495D01*
X108903991Y-129457498D01*
X108901267Y-129460223D01*
X108899515Y-129463659D01*
X108899515Y-129463661D01*
X108852325Y-129556276D01*
X108852323Y-129556280D01*
X108850574Y-129559714D01*
X108849971Y-129563516D01*
X108849970Y-129563522D01*
X108841262Y-129618505D01*
X108833106Y-129670000D01*
X108199000Y-129670000D01*
X108229426Y-129610286D01*
X108246894Y-129500000D01*
X108229426Y-129389714D01*
X108178733Y-129290223D01*
X108099777Y-129211267D01*
X108000286Y-129160574D01*
X107996481Y-129159971D01*
X107996477Y-129159970D01*
X107893807Y-129143709D01*
X107890000Y-129143106D01*
X107886193Y-129143709D01*
X107783522Y-129159970D01*
X107783516Y-129159971D01*
X107779714Y-129160574D01*
X107776280Y-129162323D01*
X107776276Y-129162325D01*
X107683661Y-129209515D01*
X107683659Y-129209515D01*
X107680223Y-129211267D01*
X107677498Y-129213991D01*
X107677495Y-129213994D01*
X107603994Y-129287495D01*
X107603991Y-129287498D01*
X107601267Y-129290223D01*
X107599515Y-129293659D01*
X107599515Y-129293661D01*
X107552325Y-129386276D01*
X107552323Y-129386280D01*
X107550574Y-129389714D01*
X107549971Y-129393516D01*
X107549970Y-129393522D01*
X107536084Y-129481198D01*
X107533106Y-129500000D01*
X93287664Y-129500000D01*
X93309777Y-129488733D01*
X93388733Y-129409777D01*
X93439426Y-129310286D01*
X93456894Y-129200000D01*
X93439426Y-129089714D01*
X93388733Y-128990223D01*
X93333158Y-128934648D01*
X93318806Y-128900000D01*
X93333158Y-128865352D01*
X93333158Y-128865351D01*
X93388733Y-128809777D01*
X93439426Y-128710286D01*
X93456894Y-128600000D01*
X93439426Y-128489714D01*
X93388733Y-128390223D01*
X93309777Y-128311267D01*
X93210286Y-128260574D01*
X93206481Y-128259971D01*
X93206477Y-128259970D01*
X93103807Y-128243709D01*
X93100000Y-128243106D01*
X93096193Y-128243709D01*
X92993522Y-128259970D01*
X92993516Y-128259971D01*
X92989714Y-128260574D01*
X92986280Y-128262323D01*
X92986276Y-128262325D01*
X92893661Y-128309515D01*
X92893659Y-128309515D01*
X92890223Y-128311267D01*
X92887498Y-128313991D01*
X92887495Y-128313994D01*
X92834648Y-128366842D01*
X92800000Y-128381194D01*
X92765352Y-128366842D01*
X92712504Y-128313994D01*
X92709777Y-128311267D01*
X92610286Y-128260574D01*
X92606481Y-128259971D01*
X92606477Y-128259970D01*
X92503807Y-128243709D01*
X92500000Y-128243106D01*
X92496193Y-128243709D01*
X92393522Y-128259970D01*
X92393516Y-128259971D01*
X92389714Y-128260574D01*
X92386280Y-128262323D01*
X92386276Y-128262325D01*
X92293661Y-128309515D01*
X92293659Y-128309515D01*
X92290223Y-128311267D01*
X92287498Y-128313991D01*
X92287495Y-128313994D01*
X92234648Y-128366842D01*
X92200000Y-128381194D01*
X92165352Y-128366842D01*
X92112504Y-128313994D01*
X92109777Y-128311267D01*
X92010286Y-128260574D01*
X92006481Y-128259971D01*
X92006477Y-128259970D01*
X91903807Y-128243709D01*
X91900000Y-128243106D01*
X91896193Y-128243709D01*
X91793522Y-128259970D01*
X91793516Y-128259971D01*
X91789714Y-128260574D01*
X91786280Y-128262323D01*
X91786276Y-128262325D01*
X91693661Y-128309515D01*
X91693659Y-128309515D01*
X91690223Y-128311267D01*
X91687498Y-128313991D01*
X91687495Y-128313994D01*
X91634648Y-128366842D01*
X91600000Y-128381194D01*
X91565352Y-128366842D01*
X91512504Y-128313994D01*
X91509777Y-128311267D01*
X91410286Y-128260574D01*
X91406481Y-128259971D01*
X91406477Y-128259970D01*
X91303807Y-128243709D01*
X91300000Y-128243106D01*
X91296193Y-128243709D01*
X91193522Y-128259970D01*
X91193516Y-128259971D01*
X91189714Y-128260574D01*
X91186280Y-128262323D01*
X91186276Y-128262325D01*
X91093661Y-128309515D01*
X91093659Y-128309515D01*
X91090223Y-128311267D01*
X91087498Y-128313991D01*
X91087495Y-128313994D01*
X91013994Y-128387495D01*
X91013991Y-128387498D01*
X91011267Y-128390223D01*
X91009515Y-128393659D01*
X91009515Y-128393661D01*
X90962325Y-128486276D01*
X90962323Y-128486280D01*
X90960574Y-128489714D01*
X90959971Y-128493516D01*
X90959970Y-128493522D01*
X90944009Y-128594294D01*
X90943106Y-128600000D01*
X90943709Y-128603807D01*
X90959970Y-128706477D01*
X90959971Y-128706481D01*
X90960574Y-128710286D01*
X91011267Y-128809777D01*
X91013994Y-128812504D01*
X91066842Y-128865352D01*
X91081194Y-128900000D01*
X91066842Y-128934648D01*
X91013994Y-128987495D01*
X91013991Y-128987498D01*
X91011267Y-128990223D01*
X91009515Y-128993659D01*
X91009515Y-128993661D01*
X90962325Y-129086276D01*
X90962323Y-129086280D01*
X90960574Y-129089714D01*
X90959971Y-129093516D01*
X90959970Y-129093522D01*
X90949073Y-129162325D01*
X90943106Y-129200000D01*
X80030558Y-129200000D01*
X80019426Y-129129714D01*
X79968733Y-129030223D01*
X79889777Y-128951267D01*
X79838205Y-128924990D01*
X79793723Y-128902325D01*
X79793721Y-128902324D01*
X79790286Y-128900574D01*
X79786481Y-128899971D01*
X79786477Y-128899970D01*
X79683807Y-128883709D01*
X79680000Y-128883106D01*
X79676193Y-128883709D01*
X79573522Y-128899970D01*
X79573516Y-128899971D01*
X79569714Y-128900574D01*
X79566280Y-128902323D01*
X79566276Y-128902325D01*
X79473661Y-128949515D01*
X79473659Y-128949515D01*
X79470223Y-128951267D01*
X79467498Y-128953991D01*
X79467495Y-128953994D01*
X79393994Y-129027495D01*
X79393991Y-129027498D01*
X79391267Y-129030223D01*
X79389515Y-129033659D01*
X79389515Y-129033661D01*
X79342325Y-129126276D01*
X79342323Y-129126280D01*
X79340574Y-129129714D01*
X79339971Y-129133516D01*
X79339970Y-129133522D01*
X79327934Y-129209515D01*
X79323106Y-129240000D01*
X78036894Y-129240000D01*
X78019426Y-129129714D01*
X77968733Y-129030223D01*
X77889777Y-128951267D01*
X77838205Y-128924990D01*
X77793723Y-128902325D01*
X77793721Y-128902324D01*
X77790286Y-128900574D01*
X77786481Y-128899971D01*
X77786477Y-128899970D01*
X77683807Y-128883709D01*
X77680000Y-128883106D01*
X77676193Y-128883709D01*
X77573522Y-128899970D01*
X77573516Y-128899971D01*
X77569714Y-128900574D01*
X77566280Y-128902323D01*
X77566276Y-128902325D01*
X77473661Y-128949515D01*
X77473659Y-128949515D01*
X77470223Y-128951267D01*
X77467498Y-128953991D01*
X77467495Y-128953994D01*
X77393994Y-129027495D01*
X77393991Y-129027498D01*
X77391267Y-129030223D01*
X77389515Y-129033659D01*
X77389515Y-129033661D01*
X77342325Y-129126276D01*
X77342323Y-129126280D01*
X77340574Y-129129714D01*
X77339971Y-129133516D01*
X77339970Y-129133522D01*
X77327934Y-129209515D01*
X77323106Y-129240000D01*
X76036894Y-129240000D01*
X76019426Y-129129714D01*
X75968733Y-129030223D01*
X75889777Y-128951267D01*
X75838205Y-128924990D01*
X75793723Y-128902325D01*
X75793721Y-128902324D01*
X75790286Y-128900574D01*
X75786481Y-128899971D01*
X75786477Y-128899970D01*
X75683807Y-128883709D01*
X75680000Y-128883106D01*
X75676193Y-128883709D01*
X75573522Y-128899970D01*
X75573516Y-128899971D01*
X75569714Y-128900574D01*
X75566280Y-128902323D01*
X75566276Y-128902325D01*
X75473661Y-128949515D01*
X75473659Y-128949515D01*
X75470223Y-128951267D01*
X75467498Y-128953991D01*
X75467495Y-128953994D01*
X75393994Y-129027495D01*
X75393991Y-129027498D01*
X75391267Y-129030223D01*
X75389515Y-129033659D01*
X75389515Y-129033661D01*
X75342325Y-129126276D01*
X75342323Y-129126280D01*
X75340574Y-129129714D01*
X75339971Y-129133516D01*
X75339970Y-129133522D01*
X75327934Y-129209515D01*
X75323106Y-129240000D01*
X74036894Y-129240000D01*
X74019426Y-129129714D01*
X73968733Y-129030223D01*
X73889777Y-128951267D01*
X73838205Y-128924990D01*
X73793723Y-128902325D01*
X73793721Y-128902324D01*
X73790286Y-128900574D01*
X73786481Y-128899971D01*
X73786477Y-128899970D01*
X73683807Y-128883709D01*
X73680000Y-128883106D01*
X73676193Y-128883709D01*
X73573522Y-128899970D01*
X73573516Y-128899971D01*
X73569714Y-128900574D01*
X73566280Y-128902323D01*
X73566276Y-128902325D01*
X73473661Y-128949515D01*
X73473659Y-128949515D01*
X73470223Y-128951267D01*
X73467498Y-128953991D01*
X73467495Y-128953994D01*
X73393994Y-129027495D01*
X73393991Y-129027498D01*
X73391267Y-129030223D01*
X73389515Y-129033659D01*
X73389515Y-129033661D01*
X73342325Y-129126276D01*
X73342323Y-129126280D01*
X73340574Y-129129714D01*
X73339971Y-129133516D01*
X73339970Y-129133522D01*
X73327934Y-129209515D01*
X73323106Y-129240000D01*
X72046894Y-129240000D01*
X72029426Y-129129714D01*
X71978733Y-129030223D01*
X71899777Y-128951267D01*
X71848205Y-128924990D01*
X71803723Y-128902325D01*
X71803721Y-128902324D01*
X71800286Y-128900574D01*
X71796481Y-128899971D01*
X71796477Y-128899970D01*
X71693807Y-128883709D01*
X71690000Y-128883106D01*
X71686193Y-128883709D01*
X71583522Y-128899970D01*
X71583516Y-128899971D01*
X71579714Y-128900574D01*
X71576280Y-128902323D01*
X71576276Y-128902325D01*
X71483661Y-128949515D01*
X71483659Y-128949515D01*
X71480223Y-128951267D01*
X71477498Y-128953991D01*
X71477495Y-128953994D01*
X71403994Y-129027495D01*
X71403991Y-129027498D01*
X71401267Y-129030223D01*
X71399515Y-129033659D01*
X71399515Y-129033661D01*
X71352325Y-129126276D01*
X71352323Y-129126280D01*
X71350574Y-129129714D01*
X71349971Y-129133516D01*
X71349970Y-129133522D01*
X71337934Y-129209515D01*
X71333106Y-129240000D01*
X37500000Y-129240000D01*
X37500000Y-126870000D01*
X106663106Y-126870000D01*
X106663709Y-126873807D01*
X106679970Y-126976477D01*
X106679971Y-126976481D01*
X106680574Y-126980286D01*
X106731267Y-127079777D01*
X106810223Y-127158733D01*
X106909714Y-127209426D01*
X107020000Y-127226894D01*
X107130286Y-127209426D01*
X107229777Y-127158733D01*
X107308733Y-127079777D01*
X107330683Y-127036698D01*
X116227331Y-127036698D01*
X116230997Y-127094969D01*
X116232142Y-127100971D01*
X116279035Y-127245293D01*
X116281642Y-127250832D01*
X116362950Y-127378954D01*
X116366845Y-127383662D01*
X116477469Y-127487545D01*
X116482416Y-127491138D01*
X116615395Y-127564245D01*
X116621075Y-127566494D01*
X116768059Y-127604233D01*
X116774128Y-127605000D01*
X117315253Y-127605000D01*
X117322145Y-127602145D01*
X117325000Y-127595253D01*
X117425000Y-127595253D01*
X117427854Y-127602145D01*
X117434747Y-127605000D01*
X117937786Y-127605000D01*
X117940832Y-127604808D01*
X118053611Y-127590560D01*
X118059530Y-127589040D01*
X118200621Y-127533179D01*
X118205983Y-127530231D01*
X118328748Y-127441037D01*
X118333206Y-127436851D01*
X118429934Y-127319927D01*
X118433210Y-127314765D01*
X118497823Y-127177455D01*
X118499710Y-127171646D01*
X118525375Y-127037109D01*
X118525357Y-127036936D01*
X120457319Y-127036936D01*
X120470024Y-127133446D01*
X120471673Y-127139599D01*
X120529671Y-127279619D01*
X120532857Y-127285137D01*
X120625119Y-127405376D01*
X120629623Y-127409880D01*
X120749862Y-127502142D01*
X120755380Y-127505328D01*
X120895400Y-127563326D01*
X120901553Y-127564975D01*
X121014092Y-127579791D01*
X121017277Y-127580000D01*
X121495253Y-127580000D01*
X121502145Y-127577145D01*
X121505000Y-127570253D01*
X121605000Y-127570253D01*
X121607854Y-127577145D01*
X121614747Y-127580000D01*
X122092723Y-127580000D01*
X122095907Y-127579791D01*
X122208446Y-127564975D01*
X122214599Y-127563326D01*
X122354619Y-127505328D01*
X122360137Y-127502142D01*
X122480376Y-127409880D01*
X122484880Y-127405376D01*
X122577143Y-127285138D01*
X122580328Y-127279620D01*
X122638326Y-127139599D01*
X122639975Y-127133446D01*
X122652680Y-127036936D01*
X122651848Y-127031529D01*
X122646600Y-127030000D01*
X121614747Y-127030000D01*
X121607854Y-127032854D01*
X121605000Y-127039747D01*
X121605000Y-127570253D01*
X121505000Y-127570253D01*
X121505000Y-127039747D01*
X121502145Y-127032854D01*
X121495253Y-127030000D01*
X120463400Y-127030000D01*
X120458151Y-127031529D01*
X120457319Y-127036936D01*
X118525357Y-127036936D01*
X118524796Y-127031600D01*
X118519495Y-127030000D01*
X117434747Y-127030000D01*
X117427854Y-127032854D01*
X117425000Y-127039747D01*
X117425000Y-127595253D01*
X117325000Y-127595253D01*
X117325000Y-127039747D01*
X117322145Y-127032854D01*
X117315253Y-127030000D01*
X116233622Y-127030000D01*
X116228448Y-127031444D01*
X116227331Y-127036698D01*
X107330683Y-127036698D01*
X107359426Y-126980286D01*
X107368517Y-126922890D01*
X116224624Y-126922890D01*
X116225203Y-126928399D01*
X116230505Y-126930000D01*
X117315253Y-126930000D01*
X117322145Y-126927145D01*
X117325000Y-126920253D01*
X117425000Y-126920253D01*
X117427854Y-126927145D01*
X117434747Y-126930000D01*
X118516378Y-126930000D01*
X118521551Y-126928555D01*
X118522668Y-126923301D01*
X118522653Y-126923063D01*
X120457319Y-126923063D01*
X120458151Y-126928470D01*
X120463400Y-126930000D01*
X121495253Y-126930000D01*
X121502145Y-126927145D01*
X121505000Y-126920253D01*
X121605000Y-126920253D01*
X121607854Y-126927145D01*
X121614747Y-126930000D01*
X122646600Y-126930000D01*
X122651848Y-126928470D01*
X122652680Y-126923063D01*
X122639975Y-126826553D01*
X122638326Y-126820400D01*
X122580328Y-126680380D01*
X122577142Y-126674862D01*
X122484880Y-126554623D01*
X122480376Y-126550119D01*
X122360137Y-126457857D01*
X122354619Y-126454671D01*
X122214599Y-126396673D01*
X122208446Y-126395024D01*
X122095907Y-126380208D01*
X122092723Y-126380000D01*
X121614747Y-126380000D01*
X121607854Y-126382854D01*
X121605000Y-126389747D01*
X121605000Y-126920253D01*
X121505000Y-126920253D01*
X121505000Y-126389747D01*
X121502145Y-126382854D01*
X121495253Y-126380000D01*
X121017277Y-126380000D01*
X121014092Y-126380208D01*
X120901553Y-126395024D01*
X120895400Y-126396673D01*
X120755380Y-126454671D01*
X120749862Y-126457857D01*
X120629623Y-126550119D01*
X120625119Y-126554623D01*
X120532856Y-126674861D01*
X120529671Y-126680379D01*
X120471673Y-126820400D01*
X120470024Y-126826553D01*
X120457319Y-126923063D01*
X118522653Y-126923063D01*
X118519002Y-126865030D01*
X118517857Y-126859028D01*
X118470964Y-126714706D01*
X118468357Y-126709167D01*
X118387049Y-126581045D01*
X118383154Y-126576337D01*
X118272530Y-126472454D01*
X118267583Y-126468861D01*
X118134604Y-126395754D01*
X118128924Y-126393505D01*
X117981940Y-126355766D01*
X117975872Y-126355000D01*
X117434747Y-126355000D01*
X117427854Y-126357854D01*
X117425000Y-126364747D01*
X117425000Y-126920253D01*
X117325000Y-126920253D01*
X117325000Y-126364747D01*
X117322145Y-126357854D01*
X117315253Y-126355000D01*
X116812214Y-126355000D01*
X116809167Y-126355191D01*
X116696388Y-126369439D01*
X116690469Y-126370959D01*
X116549378Y-126426820D01*
X116544016Y-126429768D01*
X116421251Y-126518962D01*
X116416793Y-126523148D01*
X116320065Y-126640072D01*
X116316789Y-126645234D01*
X116252176Y-126782544D01*
X116250289Y-126788353D01*
X116224624Y-126922890D01*
X107368517Y-126922890D01*
X107376894Y-126870000D01*
X107359426Y-126759714D01*
X107308733Y-126660223D01*
X107229777Y-126581267D01*
X107168645Y-126550119D01*
X107133723Y-126532325D01*
X107133721Y-126532324D01*
X107130286Y-126530574D01*
X107126481Y-126529971D01*
X107126477Y-126529970D01*
X107023807Y-126513709D01*
X107020000Y-126513106D01*
X107016193Y-126513709D01*
X106913522Y-126529970D01*
X106913516Y-126529971D01*
X106909714Y-126530574D01*
X106906280Y-126532323D01*
X106906276Y-126532325D01*
X106813661Y-126579515D01*
X106813659Y-126579515D01*
X106810223Y-126581267D01*
X106807498Y-126583991D01*
X106807495Y-126583994D01*
X106733994Y-126657495D01*
X106733991Y-126657498D01*
X106731267Y-126660223D01*
X106729515Y-126663659D01*
X106729515Y-126663661D01*
X106682325Y-126756276D01*
X106682323Y-126756280D01*
X106680574Y-126759714D01*
X106679971Y-126763516D01*
X106679970Y-126763522D01*
X106670962Y-126820400D01*
X106663106Y-126870000D01*
X37500000Y-126870000D01*
X37500000Y-126060000D01*
X104123106Y-126060000D01*
X104123709Y-126063807D01*
X104139970Y-126166477D01*
X104139971Y-126166481D01*
X104140574Y-126170286D01*
X104191267Y-126269777D01*
X104270223Y-126348733D01*
X104369714Y-126399426D01*
X104480000Y-126416894D01*
X104590286Y-126399426D01*
X104689777Y-126348733D01*
X104768733Y-126269777D01*
X104811419Y-126186001D01*
X104963106Y-126186001D01*
X104963709Y-126189808D01*
X104979970Y-126292478D01*
X104979971Y-126292482D01*
X104980574Y-126296287D01*
X105031267Y-126395778D01*
X105110223Y-126474734D01*
X105209714Y-126525427D01*
X105320000Y-126542895D01*
X105430286Y-126525427D01*
X105529777Y-126474734D01*
X105608733Y-126395778D01*
X105659426Y-126296287D01*
X105676894Y-126186001D01*
X105659426Y-126075715D01*
X105615752Y-125990000D01*
X106003106Y-125990000D01*
X106003709Y-125993807D01*
X106019970Y-126096477D01*
X106019971Y-126096481D01*
X106020574Y-126100286D01*
X106022324Y-126103721D01*
X106022325Y-126103723D01*
X106025410Y-126109777D01*
X106071267Y-126199777D01*
X106150223Y-126278733D01*
X106249714Y-126329426D01*
X106360000Y-126346894D01*
X106470286Y-126329426D01*
X106569777Y-126278733D01*
X106648733Y-126199777D01*
X106699426Y-126100286D01*
X106716894Y-125990000D01*
X106702639Y-125900000D01*
X106843106Y-125900000D01*
X106843709Y-125903807D01*
X106859970Y-126006477D01*
X106859971Y-126006481D01*
X106860574Y-126010286D01*
X106911267Y-126109777D01*
X106990223Y-126188733D01*
X107089714Y-126239426D01*
X107200000Y-126256894D01*
X107310286Y-126239426D01*
X107409777Y-126188733D01*
X107488733Y-126109777D01*
X107539426Y-126010286D01*
X107556894Y-125900000D01*
X107539426Y-125789714D01*
X107488733Y-125690223D01*
X107409777Y-125611267D01*
X107358205Y-125584990D01*
X107313723Y-125562325D01*
X107313721Y-125562324D01*
X107310286Y-125560574D01*
X107306481Y-125559971D01*
X107306477Y-125559970D01*
X107203807Y-125543709D01*
X107200000Y-125543106D01*
X107196193Y-125543709D01*
X107093522Y-125559970D01*
X107093516Y-125559971D01*
X107089714Y-125560574D01*
X107086280Y-125562323D01*
X107086276Y-125562325D01*
X106993661Y-125609515D01*
X106993659Y-125609515D01*
X106990223Y-125611267D01*
X106987498Y-125613991D01*
X106987495Y-125613994D01*
X106913994Y-125687495D01*
X106913991Y-125687498D01*
X106911267Y-125690223D01*
X106909515Y-125693659D01*
X106909515Y-125693661D01*
X106862325Y-125786276D01*
X106862323Y-125786280D01*
X106860574Y-125789714D01*
X106859971Y-125793516D01*
X106859970Y-125793522D01*
X106846861Y-125876291D01*
X106843106Y-125900000D01*
X106702639Y-125900000D01*
X106699426Y-125879714D01*
X106648733Y-125780223D01*
X106569777Y-125701267D01*
X106470286Y-125650574D01*
X106466481Y-125649971D01*
X106466477Y-125649970D01*
X106363807Y-125633709D01*
X106360000Y-125633106D01*
X106356193Y-125633709D01*
X106253522Y-125649970D01*
X106253516Y-125649971D01*
X106249714Y-125650574D01*
X106246280Y-125652323D01*
X106246276Y-125652325D01*
X106153661Y-125699515D01*
X106153659Y-125699515D01*
X106150223Y-125701267D01*
X106147498Y-125703991D01*
X106147495Y-125703994D01*
X106073994Y-125777495D01*
X106073991Y-125777498D01*
X106071267Y-125780223D01*
X106069515Y-125783659D01*
X106069515Y-125783661D01*
X106022325Y-125876276D01*
X106022323Y-125876280D01*
X106020574Y-125879714D01*
X106019971Y-125883516D01*
X106019970Y-125883522D01*
X106005720Y-125973496D01*
X106003106Y-125990000D01*
X105615752Y-125990000D01*
X105608733Y-125976224D01*
X105529777Y-125897268D01*
X105430286Y-125846575D01*
X105426481Y-125845972D01*
X105426477Y-125845971D01*
X105323807Y-125829710D01*
X105320000Y-125829107D01*
X105316193Y-125829710D01*
X105213522Y-125845971D01*
X105213516Y-125845972D01*
X105209714Y-125846575D01*
X105206280Y-125848324D01*
X105206276Y-125848326D01*
X105113661Y-125895516D01*
X105113659Y-125895516D01*
X105110223Y-125897268D01*
X105107498Y-125899992D01*
X105107495Y-125899995D01*
X105033994Y-125973496D01*
X105033991Y-125973499D01*
X105031267Y-125976224D01*
X105029515Y-125979660D01*
X105029515Y-125979662D01*
X104982325Y-126072277D01*
X104982323Y-126072281D01*
X104980574Y-126075715D01*
X104979971Y-126079517D01*
X104979970Y-126079523D01*
X104966198Y-126166477D01*
X104963106Y-126186001D01*
X104811419Y-126186001D01*
X104819426Y-126170286D01*
X104836894Y-126060000D01*
X104819426Y-125949714D01*
X104768733Y-125850223D01*
X104689777Y-125771267D01*
X104638205Y-125744990D01*
X104593723Y-125722325D01*
X104593721Y-125722324D01*
X104590286Y-125720574D01*
X104586481Y-125719971D01*
X104586477Y-125719970D01*
X104483807Y-125703709D01*
X104480000Y-125703106D01*
X104476193Y-125703709D01*
X104373522Y-125719970D01*
X104373516Y-125719971D01*
X104369714Y-125720574D01*
X104366280Y-125722323D01*
X104366276Y-125722325D01*
X104273661Y-125769515D01*
X104273659Y-125769515D01*
X104270223Y-125771267D01*
X104267498Y-125773991D01*
X104267495Y-125773994D01*
X104193994Y-125847495D01*
X104193991Y-125847498D01*
X104191267Y-125850223D01*
X104189515Y-125853659D01*
X104189515Y-125853661D01*
X104142325Y-125946276D01*
X104142323Y-125946280D01*
X104140574Y-125949714D01*
X104139971Y-125953516D01*
X104139970Y-125953522D01*
X104124009Y-126054294D01*
X104123106Y-126060000D01*
X37500000Y-126060000D01*
X37500000Y-125520000D01*
X103353106Y-125520000D01*
X103353709Y-125523807D01*
X103369970Y-125626477D01*
X103369971Y-125626481D01*
X103370574Y-125630286D01*
X103421267Y-125729777D01*
X103500223Y-125808733D01*
X103599714Y-125859426D01*
X103710000Y-125876894D01*
X103820286Y-125859426D01*
X103919777Y-125808733D01*
X103998733Y-125729777D01*
X104049426Y-125630286D01*
X104066894Y-125520000D01*
X104049426Y-125409714D01*
X103998733Y-125310223D01*
X103919777Y-125231267D01*
X103820286Y-125180574D01*
X103816481Y-125179971D01*
X103816477Y-125179970D01*
X103713807Y-125163709D01*
X103710000Y-125163106D01*
X103706193Y-125163709D01*
X103603522Y-125179970D01*
X103603516Y-125179971D01*
X103599714Y-125180574D01*
X103596280Y-125182323D01*
X103596276Y-125182325D01*
X103503661Y-125229515D01*
X103503659Y-125229515D01*
X103500223Y-125231267D01*
X103497498Y-125233991D01*
X103497495Y-125233994D01*
X103423994Y-125307495D01*
X103423991Y-125307498D01*
X103421267Y-125310223D01*
X103419515Y-125313659D01*
X103419515Y-125313661D01*
X103372325Y-125406276D01*
X103372323Y-125406280D01*
X103370574Y-125409714D01*
X103369971Y-125413516D01*
X103369970Y-125413522D01*
X103354009Y-125514294D01*
X103353106Y-125520000D01*
X37500000Y-125520000D01*
X37500000Y-123840000D01*
X65683106Y-123840000D01*
X65683709Y-123843807D01*
X65699970Y-123946477D01*
X65699971Y-123946481D01*
X65700574Y-123950286D01*
X65702324Y-123953721D01*
X65702325Y-123953723D01*
X65716105Y-123980768D01*
X65751267Y-124049777D01*
X65830223Y-124128733D01*
X65929714Y-124179426D01*
X66040000Y-124196894D01*
X66150286Y-124179426D01*
X66168786Y-124170000D01*
X83487770Y-124170000D01*
X83506643Y-124361624D01*
X83507338Y-124363917D01*
X83507340Y-124363924D01*
X83561837Y-124543573D01*
X83562538Y-124545883D01*
X83563676Y-124548012D01*
X83615686Y-124645317D01*
X83653306Y-124715698D01*
X83654833Y-124717559D01*
X83654834Y-124717560D01*
X83739172Y-124820326D01*
X83775459Y-124864541D01*
X83924302Y-124986694D01*
X84094117Y-125077462D01*
X84278376Y-125133357D01*
X84470000Y-125152230D01*
X84661624Y-125133357D01*
X84845883Y-125077462D01*
X85015698Y-124986694D01*
X85079845Y-124934050D01*
X103953106Y-124934050D01*
X103953709Y-124937857D01*
X103969970Y-125040527D01*
X103969971Y-125040531D01*
X103970574Y-125044336D01*
X104021267Y-125143827D01*
X104100223Y-125222783D01*
X104199714Y-125273476D01*
X104310000Y-125290944D01*
X104420286Y-125273476D01*
X104519777Y-125222783D01*
X104598733Y-125143827D01*
X104649426Y-125044336D01*
X104666894Y-124934050D01*
X104649426Y-124823764D01*
X104598733Y-124724273D01*
X104519777Y-124645317D01*
X104420286Y-124594624D01*
X104416481Y-124594021D01*
X104416477Y-124594020D01*
X104313807Y-124577759D01*
X104310000Y-124577156D01*
X104306193Y-124577759D01*
X104203522Y-124594020D01*
X104203516Y-124594021D01*
X104199714Y-124594624D01*
X104196280Y-124596373D01*
X104196276Y-124596375D01*
X104103661Y-124643565D01*
X104103659Y-124643565D01*
X104100223Y-124645317D01*
X104097498Y-124648041D01*
X104097495Y-124648044D01*
X104023994Y-124721545D01*
X104023991Y-124721548D01*
X104021267Y-124724273D01*
X104019515Y-124727709D01*
X104019515Y-124727711D01*
X103972325Y-124820326D01*
X103972323Y-124820330D01*
X103970574Y-124823764D01*
X103969971Y-124827566D01*
X103969970Y-124827572D01*
X103964410Y-124862678D01*
X103953106Y-124934050D01*
X85079845Y-124934050D01*
X85164541Y-124864541D01*
X85286694Y-124715698D01*
X85377462Y-124545883D01*
X85433357Y-124361624D01*
X85452230Y-124170000D01*
X85433357Y-123978376D01*
X85415649Y-123920000D01*
X111763106Y-123920000D01*
X111763709Y-123923807D01*
X111779970Y-124026477D01*
X111779971Y-124026481D01*
X111780574Y-124030286D01*
X111782324Y-124033721D01*
X111782325Y-124033723D01*
X111795948Y-124060459D01*
X111831267Y-124129777D01*
X111910223Y-124208733D01*
X112009714Y-124259426D01*
X112120000Y-124276894D01*
X112230286Y-124259426D01*
X112329777Y-124208733D01*
X112408733Y-124129777D01*
X112459426Y-124030286D01*
X112476894Y-123920000D01*
X112475310Y-123910000D01*
X115493106Y-123910000D01*
X115493709Y-123913807D01*
X115509970Y-124016477D01*
X115509971Y-124016481D01*
X115510574Y-124020286D01*
X115561267Y-124119777D01*
X115640223Y-124198733D01*
X115739714Y-124249426D01*
X115850000Y-124266894D01*
X115960286Y-124249426D01*
X116059777Y-124198733D01*
X116138733Y-124119777D01*
X116189426Y-124020286D01*
X116206894Y-123910000D01*
X116189426Y-123799714D01*
X116138733Y-123700223D01*
X116059777Y-123621267D01*
X115960286Y-123570574D01*
X115956481Y-123569971D01*
X115956477Y-123569970D01*
X115853807Y-123553709D01*
X115850000Y-123553106D01*
X115846193Y-123553709D01*
X115743522Y-123569970D01*
X115743516Y-123569971D01*
X115739714Y-123570574D01*
X115736280Y-123572323D01*
X115736276Y-123572325D01*
X115643661Y-123619515D01*
X115643659Y-123619515D01*
X115640223Y-123621267D01*
X115637498Y-123623991D01*
X115637495Y-123623994D01*
X115563994Y-123697495D01*
X115563991Y-123697498D01*
X115561267Y-123700223D01*
X115559515Y-123703659D01*
X115559515Y-123703661D01*
X115512325Y-123796276D01*
X115512323Y-123796280D01*
X115510574Y-123799714D01*
X115509971Y-123803516D01*
X115509970Y-123803522D01*
X115503101Y-123846894D01*
X115493106Y-123910000D01*
X112475310Y-123910000D01*
X112459426Y-123809714D01*
X112408733Y-123710223D01*
X112329777Y-123631267D01*
X112230286Y-123580574D01*
X112226481Y-123579971D01*
X112226477Y-123579970D01*
X112123807Y-123563709D01*
X112120000Y-123563106D01*
X112116193Y-123563709D01*
X112013522Y-123579970D01*
X112013516Y-123579971D01*
X112009714Y-123580574D01*
X112006280Y-123582323D01*
X112006276Y-123582325D01*
X111913661Y-123629515D01*
X111913659Y-123629515D01*
X111910223Y-123631267D01*
X111907498Y-123633991D01*
X111907495Y-123633994D01*
X111833994Y-123707495D01*
X111833991Y-123707498D01*
X111831267Y-123710223D01*
X111829515Y-123713659D01*
X111829515Y-123713661D01*
X111782325Y-123806276D01*
X111782323Y-123806280D01*
X111780574Y-123809714D01*
X111779971Y-123813516D01*
X111779970Y-123813522D01*
X111774685Y-123846894D01*
X111763106Y-123920000D01*
X85415649Y-123920000D01*
X85377462Y-123794117D01*
X85286694Y-123624302D01*
X85164541Y-123475459D01*
X85015698Y-123353306D01*
X84954292Y-123320484D01*
X84848012Y-123263676D01*
X84845883Y-123262538D01*
X84843575Y-123261837D01*
X84843573Y-123261837D01*
X84663924Y-123207340D01*
X84663917Y-123207338D01*
X84661624Y-123206643D01*
X84659234Y-123206407D01*
X84659231Y-123206407D01*
X84472396Y-123188006D01*
X84470000Y-123187770D01*
X84467604Y-123188006D01*
X84280768Y-123206407D01*
X84280763Y-123206407D01*
X84278376Y-123206643D01*
X84276084Y-123207338D01*
X84276075Y-123207340D01*
X84096426Y-123261837D01*
X84096420Y-123261839D01*
X84094117Y-123262538D01*
X84091991Y-123263674D01*
X84091987Y-123263676D01*
X83926426Y-123352170D01*
X83926420Y-123352173D01*
X83924302Y-123353306D01*
X83922445Y-123354829D01*
X83922439Y-123354834D01*
X83777321Y-123473930D01*
X83777316Y-123473934D01*
X83775459Y-123475459D01*
X83773934Y-123477316D01*
X83773930Y-123477321D01*
X83654834Y-123622439D01*
X83654829Y-123622445D01*
X83653306Y-123624302D01*
X83652173Y-123626420D01*
X83652170Y-123626426D01*
X83563676Y-123791987D01*
X83563674Y-123791991D01*
X83562538Y-123794117D01*
X83561839Y-123796420D01*
X83561837Y-123796426D01*
X83507340Y-123976075D01*
X83507338Y-123976084D01*
X83506643Y-123978376D01*
X83506407Y-123980763D01*
X83506407Y-123980768D01*
X83491662Y-124130484D01*
X83487770Y-124170000D01*
X66168786Y-124170000D01*
X66249777Y-124128733D01*
X66328733Y-124049777D01*
X66379426Y-123950286D01*
X66396894Y-123840000D01*
X66379426Y-123729714D01*
X66328733Y-123630223D01*
X66249777Y-123551267D01*
X66150286Y-123500574D01*
X66146481Y-123499971D01*
X66146477Y-123499970D01*
X66043807Y-123483709D01*
X66040000Y-123483106D01*
X66036193Y-123483709D01*
X65933522Y-123499970D01*
X65933516Y-123499971D01*
X65929714Y-123500574D01*
X65926280Y-123502323D01*
X65926276Y-123502325D01*
X65833661Y-123549515D01*
X65833659Y-123549515D01*
X65830223Y-123551267D01*
X65827498Y-123553991D01*
X65827495Y-123553994D01*
X65753994Y-123627495D01*
X65753991Y-123627498D01*
X65751267Y-123630223D01*
X65749515Y-123633659D01*
X65749515Y-123633661D01*
X65702325Y-123726276D01*
X65702323Y-123726280D01*
X65700574Y-123729714D01*
X65699971Y-123733516D01*
X65699970Y-123733522D01*
X65688447Y-123806276D01*
X65683106Y-123840000D01*
X37500000Y-123840000D01*
X37500000Y-123110000D01*
X90073106Y-123110000D01*
X90073709Y-123113807D01*
X90089970Y-123216477D01*
X90089971Y-123216481D01*
X90090574Y-123220286D01*
X90092324Y-123223721D01*
X90092325Y-123223723D01*
X90111745Y-123261837D01*
X90141267Y-123319777D01*
X90220223Y-123398733D01*
X90319714Y-123449426D01*
X90430000Y-123466894D01*
X90540286Y-123449426D01*
X90639777Y-123398733D01*
X90718733Y-123319777D01*
X90733905Y-123290000D01*
X104363106Y-123290000D01*
X104363709Y-123293807D01*
X104379970Y-123396477D01*
X104379971Y-123396481D01*
X104380574Y-123400286D01*
X104431267Y-123499777D01*
X104510223Y-123578733D01*
X104609714Y-123629426D01*
X104720000Y-123646894D01*
X104830286Y-123629426D01*
X104929777Y-123578733D01*
X105008733Y-123499777D01*
X105013715Y-123490000D01*
X113373106Y-123490000D01*
X113373709Y-123493807D01*
X113389970Y-123596477D01*
X113389971Y-123596481D01*
X113390574Y-123600286D01*
X113392324Y-123603721D01*
X113392325Y-123603723D01*
X113407579Y-123633661D01*
X113441267Y-123699777D01*
X113520223Y-123778733D01*
X113619714Y-123829426D01*
X113730000Y-123846894D01*
X113840286Y-123829426D01*
X113939777Y-123778733D01*
X114018733Y-123699777D01*
X114069426Y-123600286D01*
X114086894Y-123490000D01*
X114069426Y-123379714D01*
X114018733Y-123280223D01*
X113939777Y-123201267D01*
X113840286Y-123150574D01*
X113836481Y-123149971D01*
X113836477Y-123149970D01*
X113733807Y-123133709D01*
X113730000Y-123133106D01*
X113726193Y-123133709D01*
X113623522Y-123149970D01*
X113623516Y-123149971D01*
X113619714Y-123150574D01*
X113616280Y-123152323D01*
X113616276Y-123152325D01*
X113523661Y-123199515D01*
X113523659Y-123199515D01*
X113520223Y-123201267D01*
X113517498Y-123203991D01*
X113517495Y-123203994D01*
X113443994Y-123277495D01*
X113443991Y-123277498D01*
X113441267Y-123280223D01*
X113439515Y-123283659D01*
X113439515Y-123283661D01*
X113392325Y-123376276D01*
X113392323Y-123376280D01*
X113390574Y-123379714D01*
X113389971Y-123383516D01*
X113389970Y-123383522D01*
X113387284Y-123400484D01*
X113373106Y-123490000D01*
X105013715Y-123490000D01*
X105059426Y-123400286D01*
X105076894Y-123290000D01*
X105059426Y-123179714D01*
X105008733Y-123080223D01*
X104948158Y-123019648D01*
X104933806Y-122985000D01*
X104948158Y-122950352D01*
X105005352Y-122893158D01*
X105040000Y-122878806D01*
X105074648Y-122893158D01*
X105150223Y-122968733D01*
X105249714Y-123019426D01*
X105360000Y-123036894D01*
X105470286Y-123019426D01*
X105569777Y-122968733D01*
X105630352Y-122908157D01*
X105665000Y-122893806D01*
X105699647Y-122908157D01*
X105760223Y-122968733D01*
X105859714Y-123019426D01*
X105970000Y-123036894D01*
X106080286Y-123019426D01*
X106179777Y-122968733D01*
X106225352Y-122923157D01*
X106260000Y-122908806D01*
X106294647Y-122923157D01*
X106340223Y-122968733D01*
X106439714Y-123019426D01*
X106550000Y-123036894D01*
X106660286Y-123019426D01*
X106759777Y-122968733D01*
X106815352Y-122913158D01*
X106850000Y-122898806D01*
X106884648Y-122913158D01*
X106940223Y-122968733D01*
X107039714Y-123019426D01*
X107150000Y-123036894D01*
X107260286Y-123019426D01*
X107359777Y-122968733D01*
X107438733Y-122889777D01*
X107489426Y-122790286D01*
X107500558Y-122720000D01*
X109913106Y-122720000D01*
X109913709Y-122723807D01*
X109929970Y-122826477D01*
X109929971Y-122826481D01*
X109930574Y-122830286D01*
X109981267Y-122929777D01*
X110060223Y-123008733D01*
X110159714Y-123059426D01*
X110270000Y-123076894D01*
X110380286Y-123059426D01*
X110479777Y-123008733D01*
X110535566Y-122952943D01*
X110562545Y-122939197D01*
X110592456Y-122943934D01*
X110613870Y-122965348D01*
X110618608Y-122995259D01*
X110616906Y-123006007D01*
X110613106Y-123030000D01*
X110613709Y-123033807D01*
X110629970Y-123136477D01*
X110629971Y-123136481D01*
X110630574Y-123140286D01*
X110681267Y-123239777D01*
X110760223Y-123318733D01*
X110859714Y-123369426D01*
X110970000Y-123386894D01*
X111080286Y-123369426D01*
X111179777Y-123318733D01*
X111258733Y-123239777D01*
X111309426Y-123140286D01*
X111326894Y-123030000D01*
X111309426Y-122919714D01*
X111258733Y-122820223D01*
X111237130Y-122798620D01*
X111223381Y-122771637D01*
X111228118Y-122741729D01*
X111259426Y-122680286D01*
X111276894Y-122570000D01*
X111259426Y-122459714D01*
X111241662Y-122424850D01*
X111221369Y-122385022D01*
X111216632Y-122355110D01*
X111230380Y-122328129D01*
X111238733Y-122319777D01*
X111289426Y-122220286D01*
X111306894Y-122110000D01*
X111289426Y-121999714D01*
X111238733Y-121900223D01*
X111159777Y-121821267D01*
X111060286Y-121770574D01*
X111056481Y-121769971D01*
X111056477Y-121769970D01*
X110953807Y-121753709D01*
X110950000Y-121753106D01*
X110946193Y-121753709D01*
X110843522Y-121769970D01*
X110843516Y-121769971D01*
X110839714Y-121770574D01*
X110836280Y-121772323D01*
X110836276Y-121772325D01*
X110743661Y-121819515D01*
X110743659Y-121819515D01*
X110740223Y-121821267D01*
X110737498Y-121823991D01*
X110737495Y-121823994D01*
X110663993Y-121897496D01*
X110663990Y-121897499D01*
X110661267Y-121900223D01*
X110659518Y-121903653D01*
X110659518Y-121903655D01*
X110642693Y-121936675D01*
X110621279Y-121958087D01*
X110591369Y-121962825D01*
X110533808Y-121953709D01*
X110533807Y-121953709D01*
X110530000Y-121953106D01*
X110526193Y-121953709D01*
X110423522Y-121969970D01*
X110423516Y-121969971D01*
X110419714Y-121970574D01*
X110416280Y-121972323D01*
X110416276Y-121972325D01*
X110323661Y-122019515D01*
X110323659Y-122019515D01*
X110320223Y-122021267D01*
X110317498Y-122023991D01*
X110317495Y-122023994D01*
X110243994Y-122097495D01*
X110243991Y-122097498D01*
X110241267Y-122100223D01*
X110239515Y-122103659D01*
X110239515Y-122103661D01*
X110192325Y-122196276D01*
X110192323Y-122196280D01*
X110190574Y-122199714D01*
X110189971Y-122203516D01*
X110189970Y-122203522D01*
X110186771Y-122223723D01*
X110173106Y-122310000D01*
X110173709Y-122313807D01*
X110173709Y-122313810D01*
X110176879Y-122333830D01*
X110172141Y-122363739D01*
X110150728Y-122385152D01*
X110063658Y-122429516D01*
X110063654Y-122429518D01*
X110060223Y-122431267D01*
X110057498Y-122433991D01*
X110057495Y-122433994D01*
X109983994Y-122507495D01*
X109983991Y-122507498D01*
X109981267Y-122510223D01*
X109979515Y-122513659D01*
X109979515Y-122513661D01*
X109932325Y-122606276D01*
X109932323Y-122606280D01*
X109930574Y-122609714D01*
X109929971Y-122613516D01*
X109929970Y-122613522D01*
X109914009Y-122714294D01*
X109913106Y-122720000D01*
X107500558Y-122720000D01*
X107506894Y-122680000D01*
X107489426Y-122569714D01*
X107438733Y-122470223D01*
X107359777Y-122391267D01*
X107305750Y-122363739D01*
X107263723Y-122342325D01*
X107263721Y-122342324D01*
X107260286Y-122340574D01*
X107256481Y-122339971D01*
X107256477Y-122339970D01*
X107153807Y-122323709D01*
X107150000Y-122323106D01*
X107146193Y-122323709D01*
X107043522Y-122339970D01*
X107043516Y-122339971D01*
X107039714Y-122340574D01*
X107036280Y-122342323D01*
X107036276Y-122342325D01*
X106943661Y-122389515D01*
X106943659Y-122389515D01*
X106940223Y-122391267D01*
X106937498Y-122393991D01*
X106937495Y-122393994D01*
X106884648Y-122446842D01*
X106850000Y-122461194D01*
X106815352Y-122446842D01*
X106762504Y-122393994D01*
X106759777Y-122391267D01*
X106705750Y-122363739D01*
X106663723Y-122342325D01*
X106663721Y-122342324D01*
X106660286Y-122340574D01*
X106656481Y-122339971D01*
X106656477Y-122339970D01*
X106553807Y-122323709D01*
X106550000Y-122323106D01*
X106546193Y-122323709D01*
X106443522Y-122339970D01*
X106443516Y-122339971D01*
X106439714Y-122340574D01*
X106436280Y-122342323D01*
X106436276Y-122342325D01*
X106343661Y-122389515D01*
X106343659Y-122389515D01*
X106340223Y-122391267D01*
X106337498Y-122393991D01*
X106337495Y-122393994D01*
X106294648Y-122436842D01*
X106260000Y-122451194D01*
X106225352Y-122436842D01*
X106182504Y-122393994D01*
X106179777Y-122391267D01*
X106125750Y-122363739D01*
X106083723Y-122342325D01*
X106083721Y-122342324D01*
X106080286Y-122340574D01*
X106076481Y-122339971D01*
X106076477Y-122339970D01*
X105973807Y-122323709D01*
X105970000Y-122323106D01*
X105966193Y-122323709D01*
X105863522Y-122339970D01*
X105863516Y-122339971D01*
X105859714Y-122340574D01*
X105856280Y-122342323D01*
X105856276Y-122342325D01*
X105763661Y-122389515D01*
X105763659Y-122389515D01*
X105760223Y-122391267D01*
X105757498Y-122393991D01*
X105757495Y-122393994D01*
X105699648Y-122451842D01*
X105665000Y-122466194D01*
X105630352Y-122451842D01*
X105572504Y-122393994D01*
X105569777Y-122391267D01*
X105515750Y-122363739D01*
X105473723Y-122342325D01*
X105473721Y-122342324D01*
X105470286Y-122340574D01*
X105466481Y-122339971D01*
X105466477Y-122339970D01*
X105363807Y-122323709D01*
X105360000Y-122323106D01*
X105356193Y-122323709D01*
X105253522Y-122339970D01*
X105253516Y-122339971D01*
X105249714Y-122340574D01*
X105246280Y-122342323D01*
X105246276Y-122342325D01*
X105153661Y-122389515D01*
X105153659Y-122389515D01*
X105150223Y-122391267D01*
X105147498Y-122393991D01*
X105147495Y-122393994D01*
X105074648Y-122466842D01*
X105040000Y-122481194D01*
X105005352Y-122466842D01*
X104932504Y-122393994D01*
X104929777Y-122391267D01*
X104875750Y-122363739D01*
X104833723Y-122342325D01*
X104833721Y-122342324D01*
X104830286Y-122340574D01*
X104826481Y-122339971D01*
X104826477Y-122339970D01*
X104723807Y-122323709D01*
X104720000Y-122323106D01*
X104716193Y-122323709D01*
X104613522Y-122339970D01*
X104613516Y-122339971D01*
X104609714Y-122340574D01*
X104606280Y-122342323D01*
X104606276Y-122342325D01*
X104513661Y-122389515D01*
X104513659Y-122389515D01*
X104510223Y-122391267D01*
X104507498Y-122393991D01*
X104507495Y-122393994D01*
X104433994Y-122467495D01*
X104433991Y-122467498D01*
X104431267Y-122470223D01*
X104429515Y-122473659D01*
X104429515Y-122473661D01*
X104382325Y-122566276D01*
X104382323Y-122566280D01*
X104380574Y-122569714D01*
X104379971Y-122573516D01*
X104379970Y-122573522D01*
X104373101Y-122616894D01*
X104363106Y-122680000D01*
X104363709Y-122683807D01*
X104379970Y-122786477D01*
X104379971Y-122786481D01*
X104380574Y-122790286D01*
X104382324Y-122793721D01*
X104382325Y-122793723D01*
X104397579Y-122823661D01*
X104431267Y-122889777D01*
X104433994Y-122892504D01*
X104491842Y-122950352D01*
X104506194Y-122985000D01*
X104491842Y-123019648D01*
X104433994Y-123077495D01*
X104433991Y-123077498D01*
X104431267Y-123080223D01*
X104429515Y-123083659D01*
X104429515Y-123083661D01*
X104382325Y-123176276D01*
X104382323Y-123176280D01*
X104380574Y-123179714D01*
X104379971Y-123183516D01*
X104379970Y-123183522D01*
X104367275Y-123263676D01*
X104363106Y-123290000D01*
X90733905Y-123290000D01*
X90769426Y-123220286D01*
X90786894Y-123110000D01*
X90769426Y-122999714D01*
X90718733Y-122900223D01*
X90639777Y-122821267D01*
X90540286Y-122770574D01*
X90536481Y-122769971D01*
X90536477Y-122769970D01*
X90433807Y-122753709D01*
X90430000Y-122753106D01*
X90426193Y-122753709D01*
X90323522Y-122769970D01*
X90323516Y-122769971D01*
X90319714Y-122770574D01*
X90316280Y-122772323D01*
X90316276Y-122772325D01*
X90223661Y-122819515D01*
X90223659Y-122819515D01*
X90220223Y-122821267D01*
X90217498Y-122823991D01*
X90217495Y-122823994D01*
X90143994Y-122897495D01*
X90143991Y-122897498D01*
X90141267Y-122900223D01*
X90139515Y-122903659D01*
X90139515Y-122903661D01*
X90092325Y-122996276D01*
X90092323Y-122996280D01*
X90090574Y-122999714D01*
X90089971Y-123003516D01*
X90089970Y-123003522D01*
X90078254Y-123077495D01*
X90073106Y-123110000D01*
X37500000Y-123110000D01*
X37500000Y-122492558D01*
X83492500Y-122492558D01*
X83492969Y-122494918D01*
X83492970Y-122494923D01*
X83495471Y-122507495D01*
X83499898Y-122529748D01*
X83502577Y-122533758D01*
X83502578Y-122533759D01*
X83522655Y-122563807D01*
X83528078Y-122571922D01*
X83570252Y-122600102D01*
X83607442Y-122607500D01*
X85330148Y-122607500D01*
X85332558Y-122607500D01*
X85369748Y-122600102D01*
X85411922Y-122571922D01*
X85440102Y-122529748D01*
X85447500Y-122492558D01*
X85447500Y-122260000D01*
X90063106Y-122260000D01*
X90063709Y-122263807D01*
X90079970Y-122366477D01*
X90079971Y-122366481D01*
X90080574Y-122370286D01*
X90082324Y-122373721D01*
X90082325Y-122373723D01*
X90091264Y-122391267D01*
X90131267Y-122469777D01*
X90210223Y-122548733D01*
X90309714Y-122599426D01*
X90420000Y-122616894D01*
X90530286Y-122599426D01*
X90607664Y-122560000D01*
X93073106Y-122560000D01*
X93073709Y-122563807D01*
X93089970Y-122666477D01*
X93089971Y-122666481D01*
X93090574Y-122670286D01*
X93092324Y-122673721D01*
X93092325Y-122673723D01*
X93095669Y-122680286D01*
X93141267Y-122769777D01*
X93220223Y-122848733D01*
X93319714Y-122899426D01*
X93430000Y-122916894D01*
X93540286Y-122899426D01*
X93639777Y-122848733D01*
X93718733Y-122769777D01*
X93769426Y-122670286D01*
X93786894Y-122560000D01*
X93769426Y-122449714D01*
X93718733Y-122350223D01*
X93639777Y-122271267D01*
X93588205Y-122244990D01*
X93543723Y-122222325D01*
X93543721Y-122222324D01*
X93540286Y-122220574D01*
X93536481Y-122219971D01*
X93536477Y-122219970D01*
X93433807Y-122203709D01*
X93430000Y-122203106D01*
X93426193Y-122203709D01*
X93323522Y-122219970D01*
X93323516Y-122219971D01*
X93319714Y-122220574D01*
X93316280Y-122222323D01*
X93316276Y-122222325D01*
X93223661Y-122269515D01*
X93223659Y-122269515D01*
X93220223Y-122271267D01*
X93217498Y-122273991D01*
X93217495Y-122273994D01*
X93143994Y-122347495D01*
X93143991Y-122347498D01*
X93141267Y-122350223D01*
X93139515Y-122353659D01*
X93139515Y-122353661D01*
X93092325Y-122446276D01*
X93092323Y-122446280D01*
X93090574Y-122449714D01*
X93089971Y-122453516D01*
X93089970Y-122453522D01*
X93077606Y-122531588D01*
X93073106Y-122560000D01*
X90607664Y-122560000D01*
X90629777Y-122548733D01*
X90708733Y-122469777D01*
X90759426Y-122370286D01*
X90776894Y-122260000D01*
X90759426Y-122149714D01*
X90708733Y-122050223D01*
X90629777Y-121971267D01*
X90561886Y-121936675D01*
X90533723Y-121922325D01*
X90533721Y-121922324D01*
X90530286Y-121920574D01*
X90526481Y-121919971D01*
X90526477Y-121919970D01*
X90423807Y-121903709D01*
X90420000Y-121903106D01*
X90416193Y-121903709D01*
X90313522Y-121919970D01*
X90313516Y-121919971D01*
X90309714Y-121920574D01*
X90306280Y-121922323D01*
X90306276Y-121922325D01*
X90213661Y-121969515D01*
X90213659Y-121969515D01*
X90210223Y-121971267D01*
X90207498Y-121973991D01*
X90207495Y-121973994D01*
X90133994Y-122047495D01*
X90133991Y-122047498D01*
X90131267Y-122050223D01*
X90129515Y-122053659D01*
X90129515Y-122053661D01*
X90082325Y-122146276D01*
X90082323Y-122146280D01*
X90080574Y-122149714D01*
X90079971Y-122153516D01*
X90079970Y-122153522D01*
X90069073Y-122222325D01*
X90063106Y-122260000D01*
X85447500Y-122260000D01*
X85447500Y-121400000D01*
X99743106Y-121400000D01*
X99743709Y-121403807D01*
X99759970Y-121506477D01*
X99759971Y-121506481D01*
X99760574Y-121510286D01*
X99762324Y-121513721D01*
X99762325Y-121513723D01*
X99784990Y-121558205D01*
X99811267Y-121609777D01*
X99890223Y-121688733D01*
X99989714Y-121739426D01*
X100100000Y-121756894D01*
X100210286Y-121739426D01*
X100309777Y-121688733D01*
X100388733Y-121609777D01*
X100439426Y-121510286D01*
X100456894Y-121400000D01*
X100452142Y-121370000D01*
X112583106Y-121370000D01*
X112583709Y-121373806D01*
X112583709Y-121373807D01*
X112599970Y-121476477D01*
X112599971Y-121476481D01*
X112600574Y-121480286D01*
X112651267Y-121579777D01*
X112730223Y-121658733D01*
X112829714Y-121709426D01*
X112940000Y-121726894D01*
X113050286Y-121709426D01*
X113126408Y-121670639D01*
X113161334Y-121666969D01*
X113189747Y-121687611D01*
X113197049Y-121721964D01*
X113189073Y-121772325D01*
X113183106Y-121810000D01*
X113183709Y-121813807D01*
X113199970Y-121916477D01*
X113199971Y-121916481D01*
X113200574Y-121920286D01*
X113202324Y-121923721D01*
X113202325Y-121923723D01*
X113217604Y-121953709D01*
X113251267Y-122019777D01*
X113330223Y-122098733D01*
X113429714Y-122149426D01*
X113540000Y-122166894D01*
X113650286Y-122149426D01*
X113749777Y-122098733D01*
X113828733Y-122019777D01*
X113879426Y-121920286D01*
X113896894Y-121810000D01*
X113879426Y-121699714D01*
X113828733Y-121600223D01*
X113749777Y-121521267D01*
X113693097Y-121492387D01*
X113653723Y-121472325D01*
X113653721Y-121472324D01*
X113650286Y-121470574D01*
X113646481Y-121469971D01*
X113646477Y-121469970D01*
X113543807Y-121453709D01*
X113540000Y-121453106D01*
X113536193Y-121453709D01*
X113433522Y-121469970D01*
X113433516Y-121469971D01*
X113429714Y-121470574D01*
X113426282Y-121472322D01*
X113426281Y-121472323D01*
X113353592Y-121509360D01*
X113318664Y-121513030D01*
X113290252Y-121492387D01*
X113282950Y-121458034D01*
X113292411Y-121398306D01*
X113296894Y-121370000D01*
X113279426Y-121259714D01*
X113232714Y-121168036D01*
X113228444Y-121135603D01*
X113245536Y-121107711D01*
X113276317Y-121096810D01*
X113280000Y-121097394D01*
X113390286Y-121079926D01*
X113489777Y-121029233D01*
X113568733Y-120950277D01*
X113584160Y-120920000D01*
X115423106Y-120920000D01*
X115423709Y-120923807D01*
X115439970Y-121026477D01*
X115439971Y-121026481D01*
X115440574Y-121030286D01*
X115491267Y-121129777D01*
X115570223Y-121208733D01*
X115669714Y-121259426D01*
X115780000Y-121276894D01*
X115890286Y-121259426D01*
X115989777Y-121208733D01*
X116068733Y-121129777D01*
X116119426Y-121030286D01*
X116136894Y-120920000D01*
X116119426Y-120809714D01*
X116068733Y-120710223D01*
X115989777Y-120631267D01*
X115890286Y-120580574D01*
X115886481Y-120579971D01*
X115886477Y-120579970D01*
X115783807Y-120563709D01*
X115780000Y-120563106D01*
X115776193Y-120563709D01*
X115673522Y-120579970D01*
X115673516Y-120579971D01*
X115669714Y-120580574D01*
X115666280Y-120582323D01*
X115666276Y-120582325D01*
X115573661Y-120629515D01*
X115573659Y-120629515D01*
X115570223Y-120631267D01*
X115567498Y-120633991D01*
X115567495Y-120633994D01*
X115493994Y-120707495D01*
X115493991Y-120707498D01*
X115491267Y-120710223D01*
X115489515Y-120713659D01*
X115489515Y-120713661D01*
X115442325Y-120806276D01*
X115442323Y-120806280D01*
X115440574Y-120809714D01*
X115439971Y-120813516D01*
X115439970Y-120813522D01*
X115433101Y-120856894D01*
X115423106Y-120920000D01*
X113584160Y-120920000D01*
X113619426Y-120850786D01*
X113636894Y-120740500D01*
X113619426Y-120630214D01*
X113568733Y-120530723D01*
X113489777Y-120451767D01*
X113390286Y-120401074D01*
X113386481Y-120400471D01*
X113386477Y-120400470D01*
X113283807Y-120384209D01*
X113280000Y-120383606D01*
X113276193Y-120384209D01*
X113173522Y-120400470D01*
X113173516Y-120400471D01*
X113169714Y-120401074D01*
X113166280Y-120402823D01*
X113166276Y-120402825D01*
X113073661Y-120450015D01*
X113073659Y-120450015D01*
X113070223Y-120451767D01*
X113067498Y-120454491D01*
X113067495Y-120454494D01*
X112993994Y-120527995D01*
X112993991Y-120527998D01*
X112991267Y-120530723D01*
X112989515Y-120534159D01*
X112989515Y-120534161D01*
X112942325Y-120626776D01*
X112942323Y-120626780D01*
X112940574Y-120630214D01*
X112939971Y-120634016D01*
X112939970Y-120634022D01*
X112927540Y-120712504D01*
X112923106Y-120740500D01*
X112923709Y-120744307D01*
X112939970Y-120846977D01*
X112939971Y-120846981D01*
X112940574Y-120850786D01*
X112942324Y-120854221D01*
X112942325Y-120854223D01*
X112987286Y-120942464D01*
X112991556Y-120974897D01*
X112974464Y-121002789D01*
X112943682Y-121013689D01*
X112940000Y-121013106D01*
X112936193Y-121013709D01*
X112833522Y-121029970D01*
X112833516Y-121029971D01*
X112829714Y-121030574D01*
X112826280Y-121032323D01*
X112826276Y-121032325D01*
X112733661Y-121079515D01*
X112733659Y-121079515D01*
X112730223Y-121081267D01*
X112727498Y-121083991D01*
X112727495Y-121083994D01*
X112653994Y-121157495D01*
X112653991Y-121157498D01*
X112651267Y-121160223D01*
X112649515Y-121163659D01*
X112649515Y-121163661D01*
X112602325Y-121256276D01*
X112602323Y-121256280D01*
X112600574Y-121259714D01*
X112599971Y-121263516D01*
X112599970Y-121263522D01*
X112595822Y-121289714D01*
X112583106Y-121370000D01*
X100452142Y-121370000D01*
X100439426Y-121289714D01*
X100388733Y-121190223D01*
X100309777Y-121111267D01*
X100256251Y-121083994D01*
X100213723Y-121062325D01*
X100213721Y-121062324D01*
X100210286Y-121060574D01*
X100206481Y-121059971D01*
X100206477Y-121059970D01*
X100103807Y-121043709D01*
X100100000Y-121043106D01*
X100096193Y-121043709D01*
X99993522Y-121059970D01*
X99993516Y-121059971D01*
X99989714Y-121060574D01*
X99986280Y-121062323D01*
X99986276Y-121062325D01*
X99893661Y-121109515D01*
X99893659Y-121109515D01*
X99890223Y-121111267D01*
X99887498Y-121113991D01*
X99887495Y-121113994D01*
X99813994Y-121187495D01*
X99813991Y-121187498D01*
X99811267Y-121190223D01*
X99809515Y-121193659D01*
X99809515Y-121193661D01*
X99762325Y-121286276D01*
X99762323Y-121286280D01*
X99760574Y-121289714D01*
X99759971Y-121293516D01*
X99759970Y-121293522D01*
X99744009Y-121394294D01*
X99743106Y-121400000D01*
X85447500Y-121400000D01*
X85447500Y-120767442D01*
X85440102Y-120730252D01*
X85411922Y-120688078D01*
X85369748Y-120659898D01*
X85365015Y-120658956D01*
X85365014Y-120658956D01*
X85334923Y-120652970D01*
X85334918Y-120652969D01*
X85332558Y-120652500D01*
X83607442Y-120652500D01*
X83605082Y-120652969D01*
X83605076Y-120652970D01*
X83574985Y-120658956D01*
X83574982Y-120658956D01*
X83570252Y-120659898D01*
X83566242Y-120662576D01*
X83566240Y-120662578D01*
X83532089Y-120685397D01*
X83532086Y-120685399D01*
X83528078Y-120688078D01*
X83525399Y-120692086D01*
X83525397Y-120692089D01*
X83502578Y-120726240D01*
X83502576Y-120726242D01*
X83499898Y-120730252D01*
X83498956Y-120734982D01*
X83498956Y-120734985D01*
X83492970Y-120765076D01*
X83492969Y-120765082D01*
X83492500Y-120767442D01*
X83492500Y-122492558D01*
X37500000Y-122492558D01*
X37500000Y-120500000D01*
X69893106Y-120500000D01*
X69893709Y-120503807D01*
X69909970Y-120606477D01*
X69909971Y-120606481D01*
X69910574Y-120610286D01*
X69912324Y-120613721D01*
X69912325Y-120613723D01*
X69920728Y-120630214D01*
X69961267Y-120709777D01*
X70040223Y-120788733D01*
X70139714Y-120839426D01*
X70250000Y-120856894D01*
X70360286Y-120839426D01*
X70459777Y-120788733D01*
X70538733Y-120709777D01*
X70589426Y-120610286D01*
X70606894Y-120500000D01*
X70589426Y-120389714D01*
X70538733Y-120290223D01*
X70533158Y-120284648D01*
X70518806Y-120250000D01*
X70533158Y-120215352D01*
X70533157Y-120215352D01*
X70538733Y-120209777D01*
X70589426Y-120110286D01*
X70606894Y-120000000D01*
X70589426Y-119889714D01*
X70538733Y-119790223D01*
X70533158Y-119784648D01*
X70518806Y-119750000D01*
X70533158Y-119715352D01*
X70533157Y-119715352D01*
X70538733Y-119709777D01*
X70589426Y-119610286D01*
X70606894Y-119500000D01*
X70589426Y-119389714D01*
X70538733Y-119290223D01*
X70459777Y-119211267D01*
X70403579Y-119182633D01*
X70363723Y-119162325D01*
X70363721Y-119162324D01*
X70360286Y-119160574D01*
X70356481Y-119159971D01*
X70356477Y-119159970D01*
X70253807Y-119143709D01*
X70250000Y-119143106D01*
X70246193Y-119143709D01*
X70143522Y-119159970D01*
X70143516Y-119159971D01*
X70139714Y-119160574D01*
X70136280Y-119162323D01*
X70136276Y-119162325D01*
X70043661Y-119209515D01*
X70043659Y-119209515D01*
X70040223Y-119211267D01*
X70037498Y-119213991D01*
X70037495Y-119213994D01*
X69963994Y-119287495D01*
X69963991Y-119287498D01*
X69961267Y-119290223D01*
X69959515Y-119293659D01*
X69959515Y-119293661D01*
X69912325Y-119386276D01*
X69912323Y-119386280D01*
X69910574Y-119389714D01*
X69909971Y-119393516D01*
X69909970Y-119393522D01*
X69894009Y-119494294D01*
X69893106Y-119500000D01*
X69893709Y-119503807D01*
X69909970Y-119606477D01*
X69909971Y-119606481D01*
X69910574Y-119610286D01*
X69961267Y-119709777D01*
X69963993Y-119712503D01*
X69963994Y-119712504D01*
X69966842Y-119715352D01*
X69981194Y-119750000D01*
X69966842Y-119784648D01*
X69963994Y-119787495D01*
X69963991Y-119787498D01*
X69961267Y-119790223D01*
X69959515Y-119793659D01*
X69959515Y-119793661D01*
X69912325Y-119886276D01*
X69912323Y-119886280D01*
X69910574Y-119889714D01*
X69909971Y-119893516D01*
X69909970Y-119893522D01*
X69894009Y-119994294D01*
X69893106Y-120000000D01*
X69893709Y-120003807D01*
X69909970Y-120106477D01*
X69909971Y-120106481D01*
X69910574Y-120110286D01*
X69961267Y-120209777D01*
X69963994Y-120212504D01*
X69966842Y-120215352D01*
X69981194Y-120250000D01*
X69966842Y-120284648D01*
X69963994Y-120287495D01*
X69963991Y-120287498D01*
X69961267Y-120290223D01*
X69959515Y-120293659D01*
X69959515Y-120293661D01*
X69912325Y-120386276D01*
X69912323Y-120386280D01*
X69910574Y-120389714D01*
X69909971Y-120393516D01*
X69909970Y-120393522D01*
X69894009Y-120494294D01*
X69893106Y-120500000D01*
X37500000Y-120500000D01*
X37500000Y-118170000D01*
X88747528Y-118170000D01*
X88747764Y-118172396D01*
X88759189Y-118288399D01*
X88767367Y-118371425D01*
X88768062Y-118373718D01*
X88768064Y-118373725D01*
X88815969Y-118531646D01*
X88826120Y-118565110D01*
X88921531Y-118743611D01*
X88923054Y-118745467D01*
X88923057Y-118745471D01*
X89022131Y-118866193D01*
X89049932Y-118900068D01*
X89051789Y-118901592D01*
X89143036Y-118976477D01*
X89206389Y-119028469D01*
X89384890Y-119123880D01*
X89578575Y-119182633D01*
X89780000Y-119202472D01*
X89981425Y-119182633D01*
X90175110Y-119123880D01*
X90353611Y-119028469D01*
X90510068Y-118900068D01*
X90534744Y-118870000D01*
X113173106Y-118870000D01*
X113173709Y-118873807D01*
X113189970Y-118976477D01*
X113189971Y-118976481D01*
X113190574Y-118980286D01*
X113241267Y-119079777D01*
X113320223Y-119158733D01*
X113419714Y-119209426D01*
X113530000Y-119226894D01*
X113640286Y-119209426D01*
X113739777Y-119158733D01*
X113818733Y-119079777D01*
X113869426Y-118980286D01*
X113886894Y-118870000D01*
X113869426Y-118759714D01*
X113818733Y-118660223D01*
X113739777Y-118581267D01*
X113640286Y-118530574D01*
X113636481Y-118529971D01*
X113636477Y-118529970D01*
X113533807Y-118513709D01*
X113530000Y-118513106D01*
X113526193Y-118513709D01*
X113423522Y-118529970D01*
X113423516Y-118529971D01*
X113419714Y-118530574D01*
X113416280Y-118532323D01*
X113416276Y-118532325D01*
X113323661Y-118579515D01*
X113323659Y-118579515D01*
X113320223Y-118581267D01*
X113317498Y-118583991D01*
X113317495Y-118583994D01*
X113243994Y-118657495D01*
X113243991Y-118657498D01*
X113241267Y-118660223D01*
X113239515Y-118663659D01*
X113239515Y-118663661D01*
X113192325Y-118756276D01*
X113192323Y-118756280D01*
X113190574Y-118759714D01*
X113189971Y-118763516D01*
X113189970Y-118763522D01*
X113174351Y-118862142D01*
X113173106Y-118870000D01*
X90534744Y-118870000D01*
X90638469Y-118743611D01*
X90733880Y-118565110D01*
X90784967Y-118396698D01*
X116227331Y-118396698D01*
X116230997Y-118454969D01*
X116232142Y-118460971D01*
X116279035Y-118605293D01*
X116281642Y-118610832D01*
X116362950Y-118738954D01*
X116366845Y-118743662D01*
X116477469Y-118847545D01*
X116482416Y-118851138D01*
X116615395Y-118924245D01*
X116621075Y-118926494D01*
X116768059Y-118964233D01*
X116774128Y-118965000D01*
X117315253Y-118965000D01*
X117322145Y-118962145D01*
X117325000Y-118955253D01*
X117425000Y-118955253D01*
X117427854Y-118962145D01*
X117434747Y-118965000D01*
X117937786Y-118965000D01*
X117940832Y-118964808D01*
X118053611Y-118950560D01*
X118059530Y-118949040D01*
X118200621Y-118893179D01*
X118205983Y-118890231D01*
X118328748Y-118801037D01*
X118333206Y-118796851D01*
X118429934Y-118679927D01*
X118433210Y-118674765D01*
X118497823Y-118537455D01*
X118499710Y-118531646D01*
X118525375Y-118397109D01*
X118525357Y-118396936D01*
X120457319Y-118396936D01*
X120470024Y-118493446D01*
X120471673Y-118499599D01*
X120529671Y-118639619D01*
X120532857Y-118645137D01*
X120625119Y-118765376D01*
X120629623Y-118769880D01*
X120749862Y-118862142D01*
X120755380Y-118865328D01*
X120895400Y-118923326D01*
X120901553Y-118924975D01*
X121014092Y-118939791D01*
X121017277Y-118940000D01*
X121495253Y-118940000D01*
X121502145Y-118937145D01*
X121505000Y-118930253D01*
X121605000Y-118930253D01*
X121607854Y-118937145D01*
X121614747Y-118940000D01*
X122092723Y-118940000D01*
X122095907Y-118939791D01*
X122208446Y-118924975D01*
X122214599Y-118923326D01*
X122354619Y-118865328D01*
X122360137Y-118862142D01*
X122480376Y-118769880D01*
X122484880Y-118765376D01*
X122577143Y-118645138D01*
X122580328Y-118639620D01*
X122638326Y-118499599D01*
X122639975Y-118493446D01*
X122652680Y-118396936D01*
X122651848Y-118391529D01*
X122646600Y-118390000D01*
X121614747Y-118390000D01*
X121607854Y-118392854D01*
X121605000Y-118399747D01*
X121605000Y-118930253D01*
X121505000Y-118930253D01*
X121505000Y-118399747D01*
X121502145Y-118392854D01*
X121495253Y-118390000D01*
X120463400Y-118390000D01*
X120458151Y-118391529D01*
X120457319Y-118396936D01*
X118525357Y-118396936D01*
X118524796Y-118391600D01*
X118519495Y-118390000D01*
X117434747Y-118390000D01*
X117427854Y-118392854D01*
X117425000Y-118399747D01*
X117425000Y-118955253D01*
X117325000Y-118955253D01*
X117325000Y-118399747D01*
X117322145Y-118392854D01*
X117315253Y-118390000D01*
X116233622Y-118390000D01*
X116228448Y-118391444D01*
X116227331Y-118396698D01*
X90784967Y-118396698D01*
X90792633Y-118371425D01*
X90801353Y-118282890D01*
X116224624Y-118282890D01*
X116225203Y-118288399D01*
X116230505Y-118290000D01*
X117315253Y-118290000D01*
X117322145Y-118287145D01*
X117325000Y-118280253D01*
X117425000Y-118280253D01*
X117427854Y-118287145D01*
X117434747Y-118290000D01*
X118516378Y-118290000D01*
X118521551Y-118288555D01*
X118522668Y-118283301D01*
X118522653Y-118283063D01*
X120457319Y-118283063D01*
X120458151Y-118288470D01*
X120463400Y-118290000D01*
X121495253Y-118290000D01*
X121502145Y-118287145D01*
X121505000Y-118280253D01*
X121605000Y-118280253D01*
X121607854Y-118287145D01*
X121614747Y-118290000D01*
X122646600Y-118290000D01*
X122651848Y-118288470D01*
X122652680Y-118283063D01*
X122639975Y-118186553D01*
X122638326Y-118180400D01*
X122580328Y-118040380D01*
X122577142Y-118034862D01*
X122484880Y-117914623D01*
X122480376Y-117910119D01*
X122360137Y-117817857D01*
X122354619Y-117814671D01*
X122214599Y-117756673D01*
X122208446Y-117755024D01*
X122095907Y-117740208D01*
X122092723Y-117740000D01*
X121614747Y-117740000D01*
X121607854Y-117742854D01*
X121605000Y-117749747D01*
X121605000Y-118280253D01*
X121505000Y-118280253D01*
X121505000Y-117749747D01*
X121502145Y-117742854D01*
X121495253Y-117740000D01*
X121017277Y-117740000D01*
X121014092Y-117740208D01*
X120901553Y-117755024D01*
X120895400Y-117756673D01*
X120755380Y-117814671D01*
X120749862Y-117817857D01*
X120629623Y-117910119D01*
X120625119Y-117914623D01*
X120532856Y-118034861D01*
X120529671Y-118040379D01*
X120471673Y-118180400D01*
X120470024Y-118186553D01*
X120457319Y-118283063D01*
X118522653Y-118283063D01*
X118519002Y-118225030D01*
X118517857Y-118219028D01*
X118470964Y-118074706D01*
X118468357Y-118069167D01*
X118387049Y-117941045D01*
X118383154Y-117936337D01*
X118272530Y-117832454D01*
X118267583Y-117828861D01*
X118134604Y-117755754D01*
X118128924Y-117753505D01*
X117981940Y-117715766D01*
X117975872Y-117715000D01*
X117434747Y-117715000D01*
X117427854Y-117717854D01*
X117425000Y-117724747D01*
X117425000Y-118280253D01*
X117325000Y-118280253D01*
X117325000Y-117724747D01*
X117322145Y-117717854D01*
X117315253Y-117715000D01*
X116812214Y-117715000D01*
X116809167Y-117715191D01*
X116696388Y-117729439D01*
X116690469Y-117730959D01*
X116549378Y-117786820D01*
X116544016Y-117789768D01*
X116421251Y-117878962D01*
X116416793Y-117883148D01*
X116320065Y-118000072D01*
X116316789Y-118005234D01*
X116252176Y-118142544D01*
X116250289Y-118148353D01*
X116224624Y-118282890D01*
X90801353Y-118282890D01*
X90812472Y-118170000D01*
X90792633Y-117968575D01*
X90733880Y-117774890D01*
X90638469Y-117596389D01*
X90510068Y-117439932D01*
X90508210Y-117438407D01*
X90355471Y-117313057D01*
X90355467Y-117313054D01*
X90353611Y-117311531D01*
X90175110Y-117216120D01*
X90172802Y-117215420D01*
X90172800Y-117215419D01*
X89983725Y-117158064D01*
X89983718Y-117158062D01*
X89981425Y-117157367D01*
X89979035Y-117157131D01*
X89979032Y-117157131D01*
X89782396Y-117137764D01*
X89780000Y-117137528D01*
X89777604Y-117137764D01*
X89580967Y-117157131D01*
X89580962Y-117157131D01*
X89578575Y-117157367D01*
X89576283Y-117158062D01*
X89576274Y-117158064D01*
X89387199Y-117215419D01*
X89387193Y-117215421D01*
X89384890Y-117216120D01*
X89382764Y-117217256D01*
X89382760Y-117217258D01*
X89208514Y-117310395D01*
X89206389Y-117311531D01*
X89204536Y-117313051D01*
X89204528Y-117313057D01*
X89051789Y-117438407D01*
X89051783Y-117438412D01*
X89049932Y-117439932D01*
X89048412Y-117441783D01*
X89048407Y-117441789D01*
X88923057Y-117594528D01*
X88923051Y-117594536D01*
X88921531Y-117596389D01*
X88920395Y-117598512D01*
X88920395Y-117598514D01*
X88827258Y-117772760D01*
X88827256Y-117772764D01*
X88826120Y-117774890D01*
X88825421Y-117777193D01*
X88825419Y-117777199D01*
X88768064Y-117966274D01*
X88768062Y-117966283D01*
X88767367Y-117968575D01*
X88767131Y-117970962D01*
X88767131Y-117970967D01*
X88757459Y-118069167D01*
X88747528Y-118170000D01*
X37500000Y-118170000D01*
X37500000Y-118009747D01*
X37500000Y-118000000D01*
X37490253Y-118000000D01*
X34324500Y-118000000D01*
X34289852Y-117985648D01*
X34275500Y-117951000D01*
X34275500Y-110049000D01*
X34289852Y-110014352D01*
X34324500Y-110000000D01*
X55951000Y-110000000D01*
X55985648Y-110014352D01*
G37*
%TD.AperFunction*%
%TD*%
M02*
